<?xml version="1.0" encoding="UTF-8" standalone="no"?>
<!DOCTYPE svg PUBLIC "-//W3C//DTD SVG 1.1//EN"
 "http://www.w3.org/Graphics/SVG/1.1/DTD/svg11.dtd">
<!-- Generated by graphviz version 2.38.0 (20140413.2041)
 -->
<!-- Title: structs Pages: 1 -->
<svg width="1186pt" height="951pt"
 viewBox="0.00 0.00 1186.31 951.18" xmlns="http://www.w3.org/2000/svg" xmlns:xlink="http://www.w3.org/1999/xlink">
<g id="graph0" class="graph" transform="scale(1 1) rotate(0) translate(4 947.178)">
<title>structs</title>
<polygon fill="white" stroke="none" points="-4,4 -4,-947.178 1182.31,-947.178 1182.31,4 -4,4"/>
<!-- lockmanager&#45;impl -->
<g id="node1" class="node"><title>lockmanager&#45;impl</title>
<ellipse fill="none" stroke="black" cx="882.334" cy="-124" rx="75.2868" ry="18"/>
<text text-anchor="middle" x="882.334" y="-120.3" font-family="Times New Roman,serif" font-size="14.00">lockmanager&#45;impl</text>
</g>
<!-- lockmanager&#45;api -->
<g id="node2" class="node"><title>lockmanager&#45;api</title>
<ellipse fill="none" stroke="black" cx="1093.17" cy="-124" rx="70.3881" ry="18"/>
<text text-anchor="middle" x="1093.17" y="-120.3" font-family="Times New Roman,serif" font-size="14.00">lockmanager&#45;api</text>
</g>
<!-- lockmanager&#45;impl&#45;&gt;lockmanager&#45;api -->
<g id="edge1" class="edge"><title>lockmanager&#45;impl&#45;&gt;lockmanager&#45;api</title>
<path fill="none" stroke="black" d="M957.844,-124C975.65,-124 994.724,-124 1012.74,-124"/>
<polygon fill="black" stroke="black" points="1012.92,-127.5 1022.92,-124 1012.92,-120.5 1012.92,-127.5"/>
</g>
<!-- mdsalutil -->
<g id="node3" class="node"><title>mdsalutil</title>
<ellipse fill="none" stroke="black" cx="628.604" cy="-852" rx="42.7926" ry="18"/>
<text text-anchor="middle" x="628.604" y="-848.3" font-family="Times New Roman,serif" font-size="14.00">mdsalutil</text>
</g>
<!-- mdsalutil&#45;testutils -->
<g id="node4" class="node"><title>mdsalutil&#45;testutils</title>
<ellipse fill="none" stroke="black" cx="882.334" cy="-828" rx="73.387" ry="18"/>
<text text-anchor="middle" x="882.334" y="-824.3" font-family="Times New Roman,serif" font-size="14.00">mdsalutil&#45;testutils</text>
</g>
<!-- mdsalutil&#45;&gt;mdsalutil&#45;testutils -->
<g id="edge2" class="edge"><title>mdsalutil&#45;&gt;mdsalutil&#45;testutils</title>
<path fill="none" stroke="black" d="M670.609,-848.091C706.411,-844.677 759.36,-839.629 803.224,-835.447"/>
<polygon fill="black" stroke="black" points="803.674,-838.92 813.297,-834.487 803.01,-831.952 803.674,-838.92"/>
</g>
<!-- mdsalutil&#45;api -->
<g id="node13" class="node"><title>mdsalutil&#45;api</title>
<ellipse fill="none" stroke="black" cx="1093.17" cy="-590" rx="56.59" ry="18"/>
<text text-anchor="middle" x="1093.17" y="-586.3" font-family="Times New Roman,serif" font-size="14.00">mdsalutil&#45;api</text>
</g>
<!-- mdsalutil&#45;&gt;mdsalutil&#45;api -->
<g id="edge36" class="edge"><title>mdsalutil&#45;&gt;mdsalutil&#45;api</title>
<path fill="none" stroke="black" d="M662.439,-840.725C695.178,-829.721 747.023,-812.939 792.642,-801 871.483,-780.368 913.458,-819.667 972.027,-763 1020.06,-716.529 962.421,-665.854 1008.03,-617 1014.55,-610.008 1022.89,-604.821 1031.77,-600.973"/>
<polygon fill="black" stroke="black" points="1033.05,-604.233 1041.17,-597.429 1030.58,-597.683 1033.05,-604.233"/>
</g>
<!-- mdsalutil&#45;impl -->
<g id="node18" class="node"><title>mdsalutil&#45;impl</title>
<ellipse fill="none" stroke="black" cx="882.334" cy="-882" rx="61.99" ry="18"/>
<text text-anchor="middle" x="882.334" y="-878.3" font-family="Times New Roman,serif" font-size="14.00">mdsalutil&#45;impl</text>
</g>
<!-- mdsalutil&#45;&gt;mdsalutil&#45;impl -->
<g id="edge11" class="edge"><title>mdsalutil&#45;&gt;mdsalutil&#45;impl</title>
<path fill="none" stroke="black" d="M670.049,-856.82C708.941,-861.455 768.435,-868.545 814.393,-874.022"/>
<polygon fill="black" stroke="black" points="814.23,-877.528 824.574,-875.236 815.058,-870.577 814.23,-877.528"/>
</g>
<!-- mdsalutil&#45;testutils&#45;&gt;mdsalutil&#45;api -->
<g id="edge41" class="edge"><title>mdsalutil&#45;testutils&#45;&gt;mdsalutil&#45;api</title>
<path fill="none" stroke="black" d="M940.71,-816.945C952.493,-812.245 963.796,-805.546 972.027,-796 1025.01,-734.54 953.948,-677.503 1008.03,-617 1014.4,-609.869 1022.66,-604.61 1031.51,-600.734"/>
<polygon fill="black" stroke="black" points="1032.78,-603.994 1040.89,-597.175 1030.3,-597.45 1032.78,-603.994"/>
</g>
<!-- idmanager -->
<g id="node5" class="node"><title>idmanager</title>
<ellipse fill="none" stroke="black" cx="373.573" cy="-133" rx="48.1917" ry="18"/>
<text text-anchor="middle" x="373.573" y="-129.3" font-family="Times New Roman,serif" font-size="14.00">idmanager</text>
</g>
<!-- idmanager&#45;impl -->
<g id="node6" class="node"><title>idmanager&#45;impl</title>
<ellipse fill="none" stroke="black" cx="882.334" cy="-216" rx="66.0889" ry="18"/>
<text text-anchor="middle" x="882.334" y="-212.3" font-family="Times New Roman,serif" font-size="14.00">idmanager&#45;impl</text>
</g>
<!-- idmanager&#45;&gt;idmanager&#45;impl -->
<g id="edge3" class="edge"><title>idmanager&#45;&gt;idmanager&#45;impl</title>
<path fill="none" stroke="black" d="M418.218,-140.148C507.18,-154.719 709.944,-187.929 815.191,-205.167"/>
<polygon fill="black" stroke="black" points="814.63,-208.621 825.065,-206.784 815.762,-201.713 814.63,-208.621"/>
</g>
<!-- idmanager&#45;api -->
<g id="node12" class="node"><title>idmanager&#45;api</title>
<ellipse fill="none" stroke="black" cx="1093.17" cy="-316" rx="61.99" ry="18"/>
<text text-anchor="middle" x="1093.17" y="-312.3" font-family="Times New Roman,serif" font-size="14.00">idmanager&#45;api</text>
</g>
<!-- idmanager&#45;&gt;idmanager&#45;api -->
<g id="edge24" class="edge"><title>idmanager&#45;&gt;idmanager&#45;api</title>
<path fill="none" stroke="black" d="M402.173,-118.514C427.104,-106.3 465.2,-89.7609 500.565,-83 603.516,-63.3185 883.611,-40.7059 972.027,-97 981.104,-102.78 1048.35,-231.286 1078.09,-288.706"/>
<polygon fill="black" stroke="black" points="1075.15,-290.647 1082.86,-297.92 1081.37,-287.43 1075.15,-290.647"/>
</g>
<!-- idmanager&#45;shell -->
<g id="node22" class="node"><title>idmanager&#45;shell</title>
<ellipse fill="none" stroke="black" cx="628.604" cy="-110" rx="66.8882" ry="18"/>
<text text-anchor="middle" x="628.604" y="-106.3" font-family="Times New Roman,serif" font-size="14.00">idmanager&#45;shell</text>
</g>
<!-- idmanager&#45;&gt;idmanager&#45;shell -->
<g id="edge18" class="edge"><title>idmanager&#45;&gt;idmanager&#45;shell</title>
<path fill="none" stroke="black" d="M420.395,-128.835C457.839,-125.431 511.468,-120.557 554.785,-116.619"/>
<polygon fill="black" stroke="black" points="555.349,-120.082 564.991,-115.691 554.715,-113.111 555.349,-120.082"/>
</g>
<!-- idmanager&#45;impl&#45;&gt;lockmanager&#45;api -->
<g id="edge35" class="edge"><title>idmanager&#45;impl&#45;&gt;lockmanager&#45;api</title>
<path fill="none" stroke="black" d="M918.289,-200.601C953.827,-184.945 1009.01,-160.634 1047.65,-143.61"/>
<polygon fill="black" stroke="black" points="1049.36,-146.684 1057.1,-139.449 1046.54,-140.278 1049.36,-146.684"/>
</g>
<!-- idmanager&#45;impl&#45;&gt;idmanager&#45;api -->
<g id="edge26" class="edge"><title>idmanager&#45;impl&#45;&gt;idmanager&#45;api</title>
<path fill="none" stroke="black" d="M931.547,-228.287C944.907,-232.33 959.245,-237.28 972.027,-243 1003.44,-257.055 1036.69,-277.77 1060.23,-293.547"/>
<polygon fill="black" stroke="black" points="1058.51,-296.61 1068.75,-299.327 1062.44,-290.817 1058.51,-296.61"/>
</g>
<!-- idmanager&#45;impl&#45;&gt;mdsalutil&#45;api -->
<g id="edge7" class="edge"><title>idmanager&#45;impl&#45;&gt;mdsalutil&#45;api</title>
<path fill="none" stroke="black" d="M940.609,-224.849C952.118,-228.842 963.331,-234.627 972.027,-243 975.061,-245.922 1055.05,-480.767 1082.8,-562.404"/>
<polygon fill="black" stroke="black" points="1079.53,-563.666 1086.06,-572.008 1086.16,-561.414 1079.53,-563.666"/>
</g>
<!-- interfacemanager -->
<g id="node7" class="node"><title>interfacemanager</title>
<ellipse fill="none" stroke="black" cx="175.088" cy="-538" rx="71.4873" ry="18"/>
<text text-anchor="middle" x="175.088" y="-534.3" font-family="Times New Roman,serif" font-size="14.00">interfacemanager</text>
</g>
<!-- interfacemanager&#45;impl -->
<g id="node8" class="node"><title>interfacemanager&#45;impl</title>
<ellipse fill="none" stroke="black" cx="628.604" cy="-446" rx="90.1842" ry="18"/>
<text text-anchor="middle" x="628.604" y="-442.3" font-family="Times New Roman,serif" font-size="14.00">interfacemanager&#45;impl</text>
</g>
<!-- interfacemanager&#45;&gt;interfacemanager&#45;impl -->
<g id="edge4" class="edge"><title>interfacemanager&#45;&gt;interfacemanager&#45;impl</title>
<path fill="none" stroke="black" d="M231.452,-526.719C312.823,-510.139 464.801,-479.172 555.018,-460.79"/>
<polygon fill="black" stroke="black" points="555.797,-464.203 564.897,-458.777 554.399,-457.344 555.797,-464.203"/>
</g>
<!-- interfacemanager&#45;api -->
<g id="node15" class="node"><title>interfacemanager&#45;api</title>
<ellipse fill="none" stroke="black" cx="882.334" cy="-590" rx="85.2851" ry="18"/>
<text text-anchor="middle" x="882.334" y="-586.3" font-family="Times New Roman,serif" font-size="14.00">interfacemanager&#45;api</text>
</g>
<!-- interfacemanager&#45;&gt;interfacemanager&#45;api -->
<g id="edge21" class="edge"><title>interfacemanager&#45;&gt;interfacemanager&#45;api</title>
<path fill="none" stroke="black" d="M222.011,-551.728C230.282,-554.554 238.757,-557.687 246.581,-561 263.241,-568.054 265.092,-575.369 282.581,-580 462.329,-627.598 683.169,-613.569 799.95,-600.791"/>
<polygon fill="black" stroke="black" points="800.687,-604.23 810.235,-599.639 799.908,-597.274 800.687,-604.23"/>
</g>
<!-- interfacemanager&#45;shell -->
<g id="node23" class="node"><title>interfacemanager&#45;shell</title>
<ellipse fill="none" stroke="black" cx="373.573" cy="-553" rx="90.9839" ry="18"/>
<text text-anchor="middle" x="373.573" y="-549.3" font-family="Times New Roman,serif" font-size="14.00">interfacemanager&#45;shell</text>
</g>
<!-- interfacemanager&#45;&gt;interfacemanager&#45;shell -->
<g id="edge46" class="edge"><title>interfacemanager&#45;&gt;interfacemanager&#45;shell</title>
<path fill="none" stroke="black" d="M243.707,-543.162C254.868,-544.014 266.616,-544.911 278.289,-545.802"/>
<polygon fill="black" stroke="black" points="278.273,-549.311 288.511,-546.583 278.806,-542.331 278.273,-549.311"/>
</g>
<!-- interfacemanager&#45;impl&#45;&gt;lockmanager&#45;impl -->
<g id="edge29" class="edge"><title>interfacemanager&#45;impl&#45;&gt;lockmanager&#45;impl</title>
<path fill="none" stroke="black" d="M660.731,-428.989C690.018,-411.344 732.828,-381.02 756.642,-343 793.954,-283.431 753.887,-247.64 792.642,-189 804.474,-171.098 823.015,-156.385 840.092,-145.512"/>
<polygon fill="black" stroke="black" points="842.126,-148.371 848.846,-140.18 838.485,-142.393 842.126,-148.371"/>
</g>
<!-- interfacemanager&#45;impl&#45;&gt;idmanager&#45;impl -->
<g id="edge49" class="edge"><title>interfacemanager&#45;impl&#45;&gt;idmanager&#45;impl</title>
<path fill="none" stroke="black" d="M658.971,-428.867C687.558,-410.82 730.419,-379.924 756.642,-343 783.994,-304.488 758.416,-275.555 792.642,-243 798.998,-236.955 806.666,-232.26 814.8,-228.615"/>
<polygon fill="black" stroke="black" points="816.121,-231.856 824.137,-224.929 813.55,-225.345 816.121,-231.856"/>
</g>
<!-- interfacemanager&#45;impl&#45;&gt;idmanager&#45;api -->
<g id="edge45" class="edge"><title>interfacemanager&#45;impl&#45;&gt;idmanager&#45;api</title>
<path fill="none" stroke="black" d="M697.528,-434.359C767.347,-421.507 878.73,-398.527 972.027,-368 999.27,-359.086 1028.83,-346.334 1051.81,-335.689"/>
<polygon fill="black" stroke="black" points="1053.34,-338.837 1060.91,-331.424 1050.37,-332.498 1053.34,-338.837"/>
</g>
<!-- interfacemanager&#45;impl&#45;&gt;mdsalutil&#45;api -->
<g id="edge56" class="edge"><title>interfacemanager&#45;impl&#45;&gt;mdsalutil&#45;api</title>
<path fill="none" stroke="black" d="M690.298,-459.18C774.087,-477.667 920.671,-511.145 972.027,-530 1001.2,-540.712 1032.57,-556.537 1055.94,-569.245"/>
<polygon fill="black" stroke="black" points="1054.35,-572.365 1064.79,-574.122 1057.72,-566.233 1054.35,-572.365"/>
</g>
<!-- interfacemanager&#45;impl&#45;&gt;interfacemanager&#45;api -->
<g id="edge19" class="edge"><title>interfacemanager&#45;impl&#45;&gt;interfacemanager&#45;api</title>
<path fill="none" stroke="black" d="M708.725,-454.374C725.938,-459.186 743.044,-466.607 756.642,-478 786.53,-503.039 764.037,-531.506 792.642,-558 798.944,-563.836 806.388,-568.624 814.241,-572.549"/>
<polygon fill="black" stroke="black" points="813.05,-575.851 823.605,-576.77 815.927,-569.47 813.05,-575.851"/>
</g>
<!-- alivenessmonitor&#45;api -->
<g id="node29" class="node"><title>alivenessmonitor&#45;api</title>
<ellipse fill="none" stroke="black" cx="1093.17" cy="-644" rx="85.2851" ry="18"/>
<text text-anchor="middle" x="1093.17" y="-640.3" font-family="Times New Roman,serif" font-size="14.00">alivenessmonitor&#45;api</text>
</g>
<!-- interfacemanager&#45;impl&#45;&gt;alivenessmonitor&#45;api -->
<g id="edge61" class="edge"><title>interfacemanager&#45;impl&#45;&gt;alivenessmonitor&#45;api</title>
<path fill="none" stroke="black" d="M714.447,-451.802C729.299,-455.418 744.017,-460.869 756.642,-469 780.274,-484.22 769.405,-505.184 792.642,-521 860.333,-567.073 904.743,-516.335 972.027,-563 995.728,-579.439 985.006,-599.621 1008.03,-617 1013.09,-620.822 1018.71,-624.113 1024.58,-626.946"/>
<polygon fill="black" stroke="black" points="1023.39,-630.247 1033.96,-631.03 1026.19,-623.829 1023.39,-630.247"/>
</g>
<!-- genius -->
<g id="node9" class="node"><title>genius</title>
<ellipse fill="none" stroke="black" cx="33.797" cy="-503" rx="33.5952" ry="18"/>
<text text-anchor="middle" x="33.797" y="-499.3" font-family="Times New Roman,serif" font-size="14.00">genius</text>
</g>
<!-- genius&#45;&gt;mdsalutil -->
<g id="edge15" class="edge"><title>genius&#45;&gt;mdsalutil</title>
<path fill="none" stroke="black" d="M38.1226,-520.99C45.0984,-554.558 63.9994,-627.616 103.594,-675 224.556,-819.76 468.464,-846.578 575.38,-851.222"/>
<polygon fill="black" stroke="black" points="575.468,-854.728 585.595,-851.616 575.738,-847.733 575.468,-854.728"/>
</g>
<!-- genius&#45;&gt;idmanager -->
<g id="edge27" class="edge"><title>genius&#45;&gt;idmanager</title>
<path fill="none" stroke="black" d="M40.7725,-485.211C50.7752,-457.116 72.8772,-401.601 103.594,-362 173.917,-271.338 285.109,-190.886 339.879,-154.141"/>
<polygon fill="black" stroke="black" points="342.097,-156.869 348.485,-148.416 338.22,-151.04 342.097,-156.869"/>
</g>
<!-- genius&#45;&gt;interfacemanager -->
<g id="edge20" class="edge"><title>genius&#45;&gt;interfacemanager</title>
<path fill="none" stroke="black" d="M64.6783,-510.508C79.1121,-514.135 96.9727,-518.623 114.048,-522.914"/>
<polygon fill="black" stroke="black" points="113.427,-526.366 123.979,-525.409 115.133,-519.577 113.427,-526.366"/>
</g>
<!-- alivenessmonitor -->
<g id="node10" class="node"><title>alivenessmonitor</title>
<ellipse fill="none" stroke="black" cx="373.573" cy="-687" rx="71.4873" ry="18"/>
<text text-anchor="middle" x="373.573" y="-683.3" font-family="Times New Roman,serif" font-size="14.00">alivenessmonitor</text>
</g>
<!-- genius&#45;&gt;alivenessmonitor -->
<g id="edge5" class="edge"><title>genius&#45;&gt;alivenessmonitor</title>
<path fill="none" stroke="black" d="M49.7723,-519.023C62.9956,-532.521 83.2812,-551.702 103.594,-565 174.014,-611.101 264.712,-648.24 320.734,-668.957"/>
<polygon fill="black" stroke="black" points="319.844,-672.358 330.437,-672.509 322.25,-665.785 319.844,-672.358"/>
</g>
<!-- arputil -->
<g id="node17" class="node"><title>arputil</title>
<ellipse fill="none" stroke="black" cx="373.573" cy="-760" rx="33.2948" ry="18"/>
<text text-anchor="middle" x="373.573" y="-756.3" font-family="Times New Roman,serif" font-size="14.00">arputil</text>
</g>
<!-- genius&#45;&gt;arputil -->
<g id="edge10" class="edge"><title>genius&#45;&gt;arputil</title>
<path fill="none" stroke="black" d="M42.0091,-520.62C52.5615,-544.652 74.1952,-587.922 103.594,-616 173.154,-682.436 279.377,-727.078 335.245,-747.415"/>
<polygon fill="black" stroke="black" points="334.151,-750.74 344.745,-750.815 336.509,-744.15 334.151,-750.74"/>
</g>
<!-- lockmanager -->
<g id="node20" class="node"><title>lockmanager</title>
<ellipse fill="none" stroke="black" cx="628.604" cy="-18" rx="56.59" ry="18"/>
<text text-anchor="middle" x="628.604" y="-14.3" font-family="Times New Roman,serif" font-size="14.00">lockmanager</text>
</g>
<!-- genius&#45;&gt;lockmanager -->
<g id="edge32" class="edge"><title>genius&#45;&gt;lockmanager</title>
<path fill="none" stroke="black" d="M34.6279,-484.72C35.0714,-436.422 42.1578,-303.285 103.594,-218 211.604,-68.0617 447.435,-30.5168 562.225,-21.1258"/>
<polygon fill="black" stroke="black" points="562.58,-24.6089 572.281,-20.3501 562.041,-17.6296 562.58,-24.6089"/>
</g>
<!-- resourcemanager -->
<g id="node21" class="node"><title>resourcemanager</title>
<ellipse fill="none" stroke="black" cx="373.573" cy="-316" rx="72.2875" ry="18"/>
<text text-anchor="middle" x="373.573" y="-312.3" font-family="Times New Roman,serif" font-size="14.00">resourcemanager</text>
</g>
<!-- genius&#45;&gt;resourcemanager -->
<g id="edge53" class="edge"><title>genius&#45;&gt;resourcemanager</title>
<path fill="none" stroke="black" d="M50.1247,-487.053C63.4073,-473.838 83.5884,-455.157 103.594,-442 174.925,-395.088 266.493,-356.155 322.289,-334.501"/>
<polygon fill="black" stroke="black" points="323.863,-337.646 331.94,-330.79 321.35,-331.113 323.863,-337.646"/>
</g>
<!-- itm -->
<g id="node28" class="node"><title>itm</title>
<ellipse fill="none" stroke="black" cx="175.088" cy="-469" rx="27" ry="18"/>
<text text-anchor="middle" x="175.088" y="-465.3" font-family="Times New Roman,serif" font-size="14.00">itm</text>
</g>
<!-- genius&#45;&gt;itm -->
<g id="edge65" class="edge"><title>genius&#45;&gt;itm</title>
<path fill="none" stroke="black" d="M65.021,-495.623C86.947,-490.271 116.646,-483.021 139.516,-477.439"/>
<polygon fill="black" stroke="black" points="140.606,-480.775 149.491,-475.004 138.946,-473.975 140.606,-480.775"/>
</g>
<!-- alivenessmonitor&#45;impl -->
<g id="node16" class="node"><title>alivenessmonitor&#45;impl</title>
<ellipse fill="none" stroke="black" cx="882.334" cy="-644" rx="89.8845" ry="18"/>
<text text-anchor="middle" x="882.334" y="-640.3" font-family="Times New Roman,serif" font-size="14.00">alivenessmonitor&#45;impl</text>
</g>
<!-- alivenessmonitor&#45;&gt;alivenessmonitor&#45;impl -->
<g id="edge9" class="edge"><title>alivenessmonitor&#45;&gt;alivenessmonitor&#45;impl</title>
<path fill="none" stroke="black" d="M432.245,-697.43C507.959,-709.046 644.426,-722.796 756.642,-695 774.203,-690.65 776.093,-683.31 792.642,-676 803.066,-671.396 814.378,-666.93 825.325,-662.867"/>
<polygon fill="black" stroke="black" points="826.623,-666.119 834.82,-659.407 824.226,-659.542 826.623,-666.119"/>
</g>
<!-- alivenessmonitor&#45;impl&#45;protocols -->
<g id="node26" class="node"><title>alivenessmonitor&#45;impl&#45;protocols</title>
<ellipse fill="none" stroke="black" cx="628.604" cy="-668" rx="128.077" ry="18"/>
<text text-anchor="middle" x="628.604" y="-664.3" font-family="Times New Roman,serif" font-size="14.00">alivenessmonitor&#45;impl&#45;protocols</text>
</g>
<!-- alivenessmonitor&#45;&gt;alivenessmonitor&#45;impl&#45;protocols -->
<g id="edge52" class="edge"><title>alivenessmonitor&#45;&gt;alivenessmonitor&#45;impl&#45;protocols</title>
<path fill="none" stroke="black" d="M442.381,-681.908C461.716,-680.456 483.402,-678.828 504.939,-677.211"/>
<polygon fill="black" stroke="black" points="505.44,-680.683 515.15,-676.444 504.916,-673.703 505.44,-680.683"/>
</g>
<!-- alivenessmonitor&#45;&gt;alivenessmonitor&#45;api -->
<g id="edge62" class="edge"><title>alivenessmonitor&#45;&gt;alivenessmonitor&#45;api</title>
<path fill="none" stroke="black" d="M419.625,-701.06C435.929,-708.226 453.124,-718.559 464.565,-733 506.068,-785.384 450.131,-835.148 500.565,-879 579.788,-947.883 883.789,-965.878 972.027,-909 1055.19,-855.392 1081.43,-728.678 1089.16,-672.115"/>
<polygon fill="black" stroke="black" points="1092.65,-672.453 1090.44,-662.091 1085.7,-671.569 1092.65,-672.453"/>
</g>
<!-- resourcemanager&#45;impl -->
<g id="node11" class="node"><title>resourcemanager&#45;impl</title>
<ellipse fill="none" stroke="black" cx="628.604" cy="-316" rx="90.9839" ry="18"/>
<text text-anchor="middle" x="628.604" y="-312.3" font-family="Times New Roman,serif" font-size="14.00">resourcemanager&#45;impl</text>
</g>
<!-- resourcemanager&#45;impl&#45;&gt;idmanager&#45;api -->
<g id="edge6" class="edge"><title>resourcemanager&#45;impl&#45;&gt;idmanager&#45;api</title>
<path fill="none" stroke="black" d="M719.614,-316C807.704,-316 940.113,-316 1021.07,-316"/>
<polygon fill="black" stroke="black" points="1021.16,-319.5 1031.16,-316 1021.16,-312.5 1021.16,-319.5"/>
</g>
<!-- resourcemanager&#45;impl&#45;&gt;mdsalutil&#45;api -->
<g id="edge13" class="edge"><title>resourcemanager&#45;impl&#45;&gt;mdsalutil&#45;api</title>
<path fill="none" stroke="black" d="M686,-330.018C757.289,-349.602 881.601,-390.102 972.027,-454 1015.35,-484.613 1053.66,-533.791 1074.81,-563.868"/>
<polygon fill="black" stroke="black" points="1071.99,-565.948 1080.55,-572.181 1077.74,-561.966 1071.99,-565.948"/>
</g>
<!-- resourcemanager&#45;api -->
<g id="node27" class="node"><title>resourcemanager&#45;api</title>
<ellipse fill="none" stroke="black" cx="882.334" cy="-270" rx="85.5853" ry="18"/>
<text text-anchor="middle" x="882.334" y="-266.3" font-family="Times New Roman,serif" font-size="14.00">resourcemanager&#45;api</text>
</g>
<!-- resourcemanager&#45;impl&#45;&gt;resourcemanager&#45;api -->
<g id="edge64" class="edge"><title>resourcemanager&#45;impl&#45;&gt;resourcemanager&#45;api</title>
<path fill="none" stroke="black" d="M696.072,-303.854C730.145,-297.628 771.752,-290.024 806.898,-283.602"/>
<polygon fill="black" stroke="black" points="807.896,-286.978 817.104,-281.737 806.638,-280.092 807.896,-286.978"/>
</g>
<!-- itm&#45;api -->
<g id="node14" class="node"><title>itm&#45;api</title>
<ellipse fill="none" stroke="black" cx="628.604" cy="-538" rx="35.9954" ry="18"/>
<text text-anchor="middle" x="628.604" y="-534.3" font-family="Times New Roman,serif" font-size="14.00">itm&#45;api</text>
</g>
<!-- itm&#45;api&#45;&gt;interfacemanager&#45;api -->
<g id="edge8" class="edge"><title>itm&#45;api&#45;&gt;interfacemanager&#45;api</title>
<path fill="none" stroke="black" d="M661.998,-544.692C699.391,-552.416 762.001,-565.349 810.778,-575.425"/>
<polygon fill="black" stroke="black" points="810.148,-578.869 820.649,-577.464 811.564,-572.014 810.148,-578.869"/>
</g>
<!-- interfacemanager&#45;api&#45;&gt;mdsalutil&#45;api -->
<g id="edge16" class="edge"><title>interfacemanager&#45;api&#45;&gt;mdsalutil&#45;api</title>
<path fill="none" stroke="black" d="M967.674,-590C987.254,-590 1007.81,-590 1026.46,-590"/>
<polygon fill="black" stroke="black" points="1026.6,-593.5 1036.6,-590 1026.6,-586.5 1026.6,-593.5"/>
</g>
<!-- alivenessmonitor&#45;impl&#45;&gt;idmanager&#45;api -->
<g id="edge28" class="edge"><title>alivenessmonitor&#45;impl&#45;&gt;idmanager&#45;api</title>
<path fill="none" stroke="black" d="M948.549,-631.674C957.128,-627.991 965.272,-623.208 972.027,-617 1014.2,-578.238 1065.29,-410.731 1084.43,-343.791"/>
<polygon fill="black" stroke="black" points="1087.86,-344.522 1087.22,-333.946 1081.13,-342.612 1087.86,-344.522"/>
</g>
<!-- alivenessmonitor&#45;impl&#45;&gt;mdsalutil&#45;api -->
<g id="edge50" class="edge"><title>alivenessmonitor&#45;impl&#45;&gt;mdsalutil&#45;api</title>
<path fill="none" stroke="black" d="M938.203,-629.812C969.391,-621.748 1008.25,-611.698 1039.13,-603.714"/>
<polygon fill="black" stroke="black" points="1040.05,-607.091 1048.86,-601.199 1038.3,-600.314 1040.05,-607.091"/>
</g>
<!-- alivenessmonitor&#45;impl&#45;&gt;alivenessmonitor&#45;api -->
<g id="edge43" class="edge"><title>alivenessmonitor&#45;impl&#45;&gt;alivenessmonitor&#45;api</title>
<path fill="none" stroke="black" d="M972.202,-644C980.568,-644 989.07,-644 997.487,-644"/>
<polygon fill="black" stroke="black" points="997.697,-647.5 1007.7,-644 997.697,-640.5 997.697,-647.5"/>
</g>
<!-- arputil&#45;api -->
<g id="node19" class="node"><title>arputil&#45;api</title>
<ellipse fill="none" stroke="black" cx="882.334" cy="-736" rx="46.5926" ry="18"/>
<text text-anchor="middle" x="882.334" y="-732.3" font-family="Times New Roman,serif" font-size="14.00">arputil&#45;api</text>
</g>
<!-- arputil&#45;&gt;arputil&#45;api -->
<g id="edge12" class="edge"><title>arputil&#45;&gt;arputil&#45;api</title>
<path fill="none" stroke="black" d="M403.373,-768.026C467.771,-784.682 627.873,-818.896 756.642,-787 774.203,-782.65 776.093,-775.31 792.642,-768 806.634,-761.82 822.227,-755.888 836.389,-750.847"/>
<polygon fill="black" stroke="black" points="837.646,-754.115 845.927,-747.507 835.332,-747.508 837.646,-754.115"/>
</g>
<!-- arputil&#45;impl -->
<g id="node25" class="node"><title>arputil&#45;impl</title>
<ellipse fill="none" stroke="black" cx="628.604" cy="-760" rx="51.9908" ry="18"/>
<text text-anchor="middle" x="628.604" y="-756.3" font-family="Times New Roman,serif" font-size="14.00">arputil&#45;impl</text>
</g>
<!-- arputil&#45;&gt;arputil&#45;impl -->
<g id="edge25" class="edge"><title>arputil&#45;&gt;arputil&#45;impl</title>
<path fill="none" stroke="black" d="M406.877,-760C446.887,-760 515.899,-760 566.127,-760"/>
<polygon fill="black" stroke="black" points="566.225,-763.5 576.225,-760 566.225,-756.5 566.225,-763.5"/>
</g>
<!-- mdsalutil&#45;impl&#45;&gt;mdsalutil&#45;api -->
<g id="edge51" class="edge"><title>mdsalutil&#45;impl&#45;&gt;mdsalutil&#45;api</title>
<path fill="none" stroke="black" d="M939.517,-875.076C951.788,-871.032 963.607,-864.742 972.027,-855 1041.98,-774.059 938.682,-698.464 1008.03,-617 1014.23,-609.717 1022.4,-604.38 1031.21,-600.473"/>
<polygon fill="black" stroke="black" points="1032.48,-603.735 1040.57,-596.897 1029.98,-597.195 1032.48,-603.735"/>
</g>
<!-- lockmanager&#45;&gt;lockmanager&#45;impl -->
<g id="edge58" class="edge"><title>lockmanager&#45;&gt;lockmanager&#45;impl</title>
<path fill="none" stroke="black" d="M663.553,-32.2956C707.806,-50.9299 785.391,-83.5995 835.017,-104.497"/>
<polygon fill="black" stroke="black" points="833.673,-107.728 844.248,-108.383 836.39,-101.277 833.673,-107.728"/>
</g>
<!-- lockmanager&#45;&gt;lockmanager&#45;api -->
<g id="edge14" class="edge"><title>lockmanager&#45;&gt;lockmanager&#45;api</title>
<path fill="none" stroke="black" d="M684.853,-15.5522C753.886,-14.1967 874.77,-17.4873 972.027,-50 1005.75,-61.2752 1039.86,-83.5593 1063.08,-100.741"/>
<polygon fill="black" stroke="black" points="1061.03,-103.577 1071.12,-106.81 1065.24,-97.9908 1061.03,-103.577"/>
</g>
<!-- resourcemanager&#45;&gt;resourcemanager&#45;impl -->
<g id="edge17" class="edge"><title>resourcemanager&#45;&gt;resourcemanager&#45;impl</title>
<path fill="none" stroke="black" d="M445.73,-316C471.004,-316 499.951,-316 527.206,-316"/>
<polygon fill="black" stroke="black" points="527.558,-319.5 537.558,-316 527.558,-312.5 527.558,-319.5"/>
</g>
<!-- resourcemanager&#45;&gt;resourcemanager&#45;api -->
<g id="edge37" class="edge"><title>resourcemanager&#45;&gt;resourcemanager&#45;api</title>
<path fill="none" stroke="black" d="M424.827,-303.287C447.773,-297.985 475.391,-292.304 500.565,-289 597.286,-276.308 708.844,-271.932 786.098,-270.504"/>
<polygon fill="black" stroke="black" points="786.353,-274 796.292,-270.329 786.233,-267.001 786.353,-274"/>
</g>
<!-- idmanager&#45;shell&#45;&gt;idmanager&#45;impl -->
<g id="edge60" class="edge"><title>idmanager&#45;shell&#45;&gt;idmanager&#45;impl</title>
<path fill="none" stroke="black" d="M689.831,-117.343C712.033,-122.003 736.629,-129.606 756.642,-142 777.545,-154.944 772.41,-170.033 792.642,-184 802.124,-190.545 813.096,-195.911 824.022,-200.25"/>
<polygon fill="black" stroke="black" points="822.981,-203.597 833.574,-203.803 825.421,-197.036 822.981,-203.597"/>
</g>
<!-- idmanager&#45;shell&#45;&gt;mdsalutil&#45;api -->
<g id="edge31" class="edge"><title>idmanager&#45;shell&#45;&gt;mdsalutil&#45;api</title>
<path fill="none" stroke="black" d="M677.288,-122.494C709.734,-130.871 753.688,-141.979 792.642,-151 872.037,-169.385 913.802,-131.979 972.027,-189 1022.25,-238.18 988.67,-275.428 1008.03,-343 1031.16,-423.774 1064.94,-517.157 1081.8,-562.48"/>
<polygon fill="black" stroke="black" points="1078.54,-563.769 1085.32,-571.913 1085.1,-561.32 1078.54,-563.769"/>
</g>
<!-- interfacemanager&#45;shell&#45;&gt;interfacemanager&#45;impl -->
<g id="edge22" class="edge"><title>interfacemanager&#45;shell&#45;&gt;interfacemanager&#45;impl</title>
<path fill="none" stroke="black" d="M420.654,-537.506C434.838,-532.499 450.435,-526.749 464.565,-521 505.804,-504.222 551.803,-482.807 584.399,-467.159"/>
<polygon fill="black" stroke="black" points="586.154,-470.198 593.643,-462.703 583.115,-463.892 586.154,-470.198"/>
</g>
<!-- interfacemanager&#45;shell&#45;&gt;interfacemanager&#45;api -->
<g id="edge54" class="edge"><title>interfacemanager&#45;shell&#45;&gt;interfacemanager&#45;api</title>
<path fill="none" stroke="black" d="M455.197,-561.034C470.268,-562.435 485.891,-563.82 500.565,-565 599.311,-572.942 712.617,-580.136 789.78,-584.746"/>
<polygon fill="black" stroke="black" points="789.76,-588.251 799.95,-585.351 790.176,-581.263 789.76,-588.251"/>
</g>
<!-- itm&#45;impl -->
<g id="node24" class="node"><title>itm&#45;impl</title>
<ellipse fill="none" stroke="black" cx="373.573" cy="-400" rx="40.0939" ry="18"/>
<text text-anchor="middle" x="373.573" y="-396.3" font-family="Times New Roman,serif" font-size="14.00">itm&#45;impl</text>
</g>
<!-- itm&#45;impl&#45;&gt;lockmanager&#45;impl -->
<g id="edge40" class="edge"><title>itm&#45;impl&#45;&gt;lockmanager&#45;impl</title>
<path fill="none" stroke="black" d="M404.2,-388.112C424.055,-378.691 449.271,-363.662 464.565,-343 500.488,-294.468 457.002,-253.81 500.565,-212 543.292,-170.992 704.811,-144.991 803.239,-132.599"/>
<polygon fill="black" stroke="black" points="803.95,-136.038 813.444,-131.335 803.089,-129.091 803.95,-136.038"/>
</g>
<!-- itm&#45;impl&#45;&gt;idmanager&#45;impl -->
<g id="edge23" class="edge"><title>itm&#45;impl&#45;&gt;idmanager&#45;impl</title>
<path fill="none" stroke="black" d="M401.445,-386.858C420.506,-376.663 445.912,-361.222 464.565,-343 485.198,-322.844 476.535,-304.954 500.565,-289 593.059,-227.59 724.437,-215.01 806.193,-213.829"/>
<polygon fill="black" stroke="black" points="806.435,-217.327 816.404,-213.737 806.372,-210.328 806.435,-217.327"/>
</g>
<!-- itm&#45;impl&#45;&gt;idmanager&#45;api -->
<g id="edge63" class="edge"><title>itm&#45;impl&#45;&gt;idmanager&#45;api</title>
<path fill="none" stroke="black" d="M412.648,-395.543C528.521,-381.979 877.931,-341.078 1025.38,-323.819"/>
<polygon fill="black" stroke="black" points="1026.11,-327.256 1035.64,-322.617 1025.3,-320.304 1026.11,-327.256"/>
</g>
<!-- itm&#45;impl&#45;&gt;mdsalutil&#45;api -->
<g id="edge48" class="edge"><title>itm&#45;impl&#45;&gt;mdsalutil&#45;api</title>
<path fill="none" stroke="black" d="M413.952,-398.932C483.605,-397.714 632.87,-398.12 756.642,-419 854.99,-435.591 884.903,-433.45 972.027,-482 1011.16,-503.805 1048.22,-540.44 1070.57,-564.913"/>
<polygon fill="black" stroke="black" points="1068.01,-567.296 1077.3,-572.397 1073.22,-562.618 1068.01,-567.296"/>
</g>
<!-- itm&#45;impl&#45;&gt;itm&#45;api -->
<g id="edge33" class="edge"><title>itm&#45;impl&#45;&gt;itm&#45;api</title>
<path fill="none" stroke="black" d="M402.139,-413.065C421.049,-422.887 445.984,-437.607 464.565,-455 484.821,-473.96 477.689,-490.301 500.565,-506 524.902,-522.701 557.21,-530.693 583.155,-534.514"/>
<polygon fill="black" stroke="black" points="582.745,-537.99 593.116,-535.825 583.659,-531.05 582.745,-537.99"/>
</g>
<!-- itm&#45;impl&#45;&gt;interfacemanager&#45;api -->
<g id="edge34" class="edge"><title>itm&#45;impl&#45;&gt;interfacemanager&#45;api</title>
<path fill="none" stroke="black" d="M395.218,-415.284C419.238,-432.25 460.712,-459.071 500.565,-473 609.181,-510.961 657.5,-452.612 756.642,-511 779.315,-524.353 771.408,-542.462 792.642,-558 800.29,-563.596 809.014,-568.298 817.937,-572.223"/>
<polygon fill="black" stroke="black" points="816.69,-575.494 827.271,-576.038 819.338,-569.015 816.69,-575.494"/>
</g>
<!-- arputil&#45;impl&#45;&gt;mdsalutil&#45;api -->
<g id="edge57" class="edge"><title>arputil&#45;impl&#45;&gt;mdsalutil&#45;api</title>
<path fill="none" stroke="black" d="M666.225,-747.455C699.082,-736.461 748.744,-720.488 792.642,-709 871.483,-688.368 904.571,-716.731 972.027,-671 995.901,-654.814 985.006,-634.379 1008.03,-617 1016.02,-610.969 1025.4,-606.258 1034.95,-602.586"/>
<polygon fill="black" stroke="black" points="1036.21,-605.85 1044.5,-599.25 1033.91,-599.241 1036.21,-605.85"/>
</g>
<!-- arputil&#45;impl&#45;&gt;interfacemanager&#45;api -->
<g id="edge39" class="edge"><title>arputil&#45;impl&#45;&gt;interfacemanager&#45;api</title>
<path fill="none" stroke="black" d="M667.956,-748.015C695.597,-737.72 732.19,-720.464 756.642,-695 783.088,-667.461 763.861,-642.088 792.642,-617 797.499,-612.766 803.006,-609.196 808.841,-606.186"/>
<polygon fill="black" stroke="black" points="810.587,-609.236 818.233,-601.902 807.682,-602.868 810.587,-609.236"/>
</g>
<!-- arputil&#45;impl&#45;&gt;arputil&#45;api -->
<g id="edge59" class="edge"><title>arputil&#45;impl&#45;&gt;arputil&#45;api</title>
<path fill="none" stroke="black" d="M679.037,-755.287C721.456,-751.243 782.514,-745.422 826.441,-741.234"/>
<polygon fill="black" stroke="black" points="827.034,-744.693 836.656,-740.26 826.369,-737.725 827.034,-744.693"/>
</g>
<!-- alivenessmonitor&#45;impl&#45;protocols&#45;&gt;interfacemanager&#45;api -->
<g id="edge30" class="edge"><title>alivenessmonitor&#45;impl&#45;protocols&#45;&gt;interfacemanager&#45;api</title>
<path fill="none" stroke="black" d="M701.423,-653.086C719.701,-648.43 739.123,-642.719 756.642,-636 773.535,-629.522 775.913,-623.888 792.642,-617 801.168,-613.49 810.319,-610.199 819.388,-607.205"/>
<polygon fill="black" stroke="black" points="820.707,-610.457 829.164,-604.075 818.573,-603.791 820.707,-610.457"/>
</g>
<!-- alivenessmonitor&#45;impl&#45;protocols&#45;&gt;alivenessmonitor&#45;impl -->
<g id="edge44" class="edge"><title>alivenessmonitor&#45;impl&#45;protocols&#45;&gt;alivenessmonitor&#45;impl</title>
<path fill="none" stroke="black" d="M734.902,-657.961C753.545,-656.183 772.806,-654.347 790.991,-652.613"/>
<polygon fill="black" stroke="black" points="791.349,-656.095 800.972,-651.662 790.684,-649.127 791.349,-656.095"/>
</g>
<!-- alivenessmonitor&#45;impl&#45;protocols&#45;&gt;arputil&#45;api -->
<g id="edge55" class="edge"><title>alivenessmonitor&#45;impl&#45;protocols&#45;&gt;arputil&#45;api</title>
<path fill="none" stroke="black" d="M688.623,-683.943C732.792,-695.874 792.432,-711.985 833.61,-723.108"/>
<polygon fill="black" stroke="black" points="832.833,-726.524 843.4,-725.753 834.659,-719.766 832.833,-726.524"/>
</g>
<!-- resourcemanager&#45;api&#45;&gt;idmanager&#45;api -->
<g id="edge38" class="edge"><title>resourcemanager&#45;api&#45;&gt;idmanager&#45;api</title>
<path fill="none" stroke="black" d="M942.062,-282.936C970.66,-289.235 1004.95,-296.789 1033.54,-303.086"/>
<polygon fill="black" stroke="black" points="1032.87,-306.523 1043.39,-305.256 1034.38,-299.687 1032.87,-306.523"/>
</g>
<!-- itm&#45;&gt;itm&#45;api -->
<g id="edge42" class="edge"><title>itm&#45;&gt;itm&#45;api</title>
<path fill="none" stroke="black" d="M201.657,-472.907C275.74,-484.229 491.142,-517.146 584.079,-531.349"/>
<polygon fill="black" stroke="black" points="583.587,-534.814 594.001,-532.865 584.645,-527.894 583.587,-534.814"/>
</g>
<!-- itm&#45;&gt;itm&#45;impl -->
<g id="edge47" class="edge"><title>itm&#45;&gt;itm&#45;impl</title>
<path fill="none" stroke="black" d="M199.399,-460.814C231.986,-449.37 291.654,-428.417 331.716,-414.348"/>
<polygon fill="black" stroke="black" points="332.925,-417.633 341.2,-411.017 330.605,-411.028 332.925,-417.633"/>
</g>
</g>
</svg>
