<?xml version="1.0" encoding="UTF-8" standalone="no"?>
<!DOCTYPE svg PUBLIC "-//W3C//DTD SVG 1.1//EN"
 "http://www.w3.org/Graphics/SVG/1.1/DTD/svg11.dtd">
<!-- Generated by graphviz version 2.38.0 (20140413.2041)
 -->
<!-- Title: structs Pages: 1 -->
<svg width="2000pt" height="404pt"
 viewBox="0.00 0.00 2000.29 404.00" xmlns="http://www.w3.org/2000/svg" xmlns:xlink="http://www.w3.org/1999/xlink">
<g id="graph0" class="graph" transform="scale(1 1) rotate(0) translate(4 400)">
<title>structs</title>
<polygon fill="white" stroke="none" points="-4,4 -4,-400 1996.29,-400 1996.29,4 -4,4"/>
<!-- idmanager&#45;shell -->
<g id="node1" class="node"><title>idmanager&#45;shell</title>
<ellipse fill="none" stroke="black" cx="1556.74" cy="-162" rx="66.8882" ry="18"/>
<text text-anchor="middle" x="1556.74" y="-158.3" font-family="Times New Roman,serif" font-size="14.00">idmanager&#45;shell</text>
</g>
<!-- idmanager&#45;impl -->
<g id="node2" class="node"><title>idmanager&#45;impl</title>
<ellipse fill="none" stroke="black" cx="1549.74" cy="-90" rx="66.0889" ry="18"/>
<text text-anchor="middle" x="1549.74" y="-86.3" font-family="Times New Roman,serif" font-size="14.00">idmanager&#45;impl</text>
</g>
<!-- idmanager&#45;shell&#45;&gt;idmanager&#45;impl -->
<g id="edge1" class="edge"><title>idmanager&#45;shell&#45;&gt;idmanager&#45;impl</title>
<path fill="none" stroke="black" d="M1555.01,-143.697C1554.24,-135.983 1553.32,-126.712 1552.46,-118.112"/>
<polygon fill="black" stroke="black" points="1555.93,-117.706 1551.45,-108.104 1548.97,-118.403 1555.93,-117.706"/>
</g>
<!-- mdsalutil&#45;api -->
<g id="node8" class="node"><title>mdsalutil&#45;api</title>
<ellipse fill="none" stroke="black" cx="616.745" cy="-18" rx="56.59" ry="18"/>
<text text-anchor="middle" x="616.745" y="-14.3" font-family="Times New Roman,serif" font-size="14.00">mdsalutil&#45;api</text>
</g>
<!-- idmanager&#45;shell&#45;&gt;mdsalutil&#45;api -->
<g id="edge6" class="edge"><title>idmanager&#45;shell&#45;&gt;mdsalutil&#45;api</title>
<path fill="none" stroke="black" d="M1531.96,-145.237C1494.85,-121.953 1426.27,-80.224 1398.74,-72 1331.07,-51.7814 858.834,-29.4985 682.739,-21.7975"/>
<polygon fill="black" stroke="black" points="682.717,-18.2933 672.574,-21.3548 682.412,-25.2867 682.717,-18.2933"/>
</g>
<!-- idmanager&#45;impl&#45;&gt;mdsalutil&#45;api -->
<g id="edge48" class="edge"><title>idmanager&#45;impl&#45;&gt;mdsalutil&#45;api</title>
<path fill="none" stroke="black" d="M1501.29,-77.5086C1490.93,-75.3874 1480.01,-73.4025 1469.74,-72 1178.49,-32.2259 827.152,-22.2713 683.173,-19.8032"/>
<polygon fill="black" stroke="black" points="683.225,-16.3036 673.168,-19.6381 683.109,-23.3027 683.225,-16.3036"/>
</g>
<!-- idmanager&#45;api -->
<g id="node22" class="node"><title>idmanager&#45;api</title>
<ellipse fill="none" stroke="black" cx="1181.74" cy="-18" rx="61.99" ry="18"/>
<text text-anchor="middle" x="1181.74" y="-14.3" font-family="Times New Roman,serif" font-size="14.00">idmanager&#45;api</text>
</g>
<!-- idmanager&#45;impl&#45;&gt;idmanager&#45;api -->
<g id="edge44" class="edge"><title>idmanager&#45;impl&#45;&gt;idmanager&#45;api</title>
<path fill="none" stroke="black" d="M1499.43,-78.0887C1489.6,-76.0181 1479.35,-73.905 1469.74,-72 1391.77,-56.5431 1301.6,-40.1957 1243.23,-29.812"/>
<polygon fill="black" stroke="black" points="1243.53,-26.31 1233.07,-28.0076 1242.3,-33.2022 1243.53,-26.31"/>
</g>
<!-- lockmanager&#45;api -->
<g id="node29" class="node"><title>lockmanager&#45;api</title>
<ellipse fill="none" stroke="black" cx="1709.74" cy="-18" rx="70.3881" ry="18"/>
<text text-anchor="middle" x="1709.74" y="-14.3" font-family="Times New Roman,serif" font-size="14.00">lockmanager&#45;api</text>
</g>
<!-- idmanager&#45;impl&#45;&gt;lockmanager&#45;api -->
<g id="edge54" class="edge"><title>idmanager&#45;impl&#45;&gt;lockmanager&#45;api</title>
<path fill="none" stroke="black" d="M1583.29,-74.3257C1607.44,-63.7569 1640.25,-49.404 1666.39,-37.9659"/>
<polygon fill="black" stroke="black" points="1667.94,-41.1109 1675.7,-33.8961 1665.13,-34.6978 1667.94,-41.1109"/>
</g>
<!-- mdsalutil -->
<g id="node3" class="node"><title>mdsalutil</title>
<ellipse fill="none" stroke="black" cx="176.745" cy="-162" rx="42.7926" ry="18"/>
<text text-anchor="middle" x="176.745" y="-158.3" font-family="Times New Roman,serif" font-size="14.00">mdsalutil</text>
</g>
<!-- mdsalutil&#45;impl -->
<g id="node4" class="node"><title>mdsalutil&#45;impl</title>
<ellipse fill="none" stroke="black" cx="61.7445" cy="-90" rx="61.99" ry="18"/>
<text text-anchor="middle" x="61.7445" y="-86.3" font-family="Times New Roman,serif" font-size="14.00">mdsalutil&#45;impl</text>
</g>
<!-- mdsalutil&#45;&gt;mdsalutil&#45;impl -->
<g id="edge2" class="edge"><title>mdsalutil&#45;&gt;mdsalutil&#45;impl</title>
<path fill="none" stroke="black" d="M153.473,-146.834C137.003,-136.81 114.643,-123.199 96.1234,-111.926"/>
<polygon fill="black" stroke="black" points="97.7447,-108.816 87.3828,-106.606 94.105,-114.795 97.7447,-108.816"/>
</g>
<!-- mdsalutil&#45;&gt;mdsalutil&#45;api -->
<g id="edge5" class="edge"><title>mdsalutil&#45;&gt;mdsalutil&#45;api</title>
<path fill="none" stroke="black" d="M169.115,-143.93C161.546,-124.087 153.364,-91.568 170.745,-72 195.556,-44.0653 433.213,-28.2511 551.098,-22.0668"/>
<polygon fill="black" stroke="black" points="551.286,-25.5618 561.092,-21.5505 550.925,-18.5711 551.286,-25.5618"/>
</g>
<!-- mdsalutil&#45;testutils -->
<g id="node24" class="node"><title>mdsalutil&#45;testutils</title>
<ellipse fill="none" stroke="black" cx="252.745" cy="-90" rx="73.387" ry="18"/>
<text text-anchor="middle" x="252.745" y="-86.3" font-family="Times New Roman,serif" font-size="14.00">mdsalutil&#45;testutils</text>
</g>
<!-- mdsalutil&#45;&gt;mdsalutil&#45;testutils -->
<g id="edge43" class="edge"><title>mdsalutil&#45;&gt;mdsalutil&#45;testutils</title>
<path fill="none" stroke="black" d="M193.99,-145.116C203.787,-136.092 216.239,-124.623 227.156,-114.568"/>
<polygon fill="black" stroke="black" points="229.79,-116.901 234.774,-107.552 225.048,-111.752 229.79,-116.901"/>
</g>
<!-- mdsalutil&#45;impl&#45;&gt;mdsalutil&#45;api -->
<g id="edge60" class="edge"><title>mdsalutil&#45;impl&#45;&gt;mdsalutil&#45;api</title>
<path fill="none" stroke="black" d="M107.804,-77.8459C117.646,-75.7019 128.009,-73.6224 137.745,-72 285.106,-47.4426 459.929,-31.3583 552.217,-23.8742"/>
<polygon fill="black" stroke="black" points="552.554,-27.3585 562.242,-23.0688 551.994,-20.3809 552.554,-27.3585"/>
</g>
<!-- interfacemanager&#45;impl -->
<g id="node5" class="node"><title>interfacemanager&#45;impl</title>
<ellipse fill="none" stroke="black" cx="1305.74" cy="-162" rx="90.1842" ry="18"/>
<text text-anchor="middle" x="1305.74" y="-158.3" font-family="Times New Roman,serif" font-size="14.00">interfacemanager&#45;impl</text>
</g>
<!-- interfacemanager&#45;impl&#45;&gt;idmanager&#45;impl -->
<g id="edge3" class="edge"><title>interfacemanager&#45;impl&#45;&gt;idmanager&#45;impl</title>
<path fill="none" stroke="black" d="M1355.12,-146.834C1395.99,-135.11 1453.95,-118.482 1495.98,-106.424"/>
<polygon fill="black" stroke="black" points="1497.12,-109.739 1505.77,-103.617 1495.19,-103.01 1497.12,-109.739"/>
</g>
<!-- interfacemanager&#45;impl&#45;&gt;mdsalutil&#45;api -->
<g id="edge11" class="edge"><title>interfacemanager&#45;impl&#45;&gt;mdsalutil&#45;api</title>
<path fill="none" stroke="black" d="M1265.63,-145.744C1240.97,-135.908 1209,-122.315 1181.74,-108 1155.22,-94.0677 1153.06,-81.8123 1124.74,-72 1044.66,-44.2422 800.878,-28.3851 682.558,-22.1344"/>
<polygon fill="black" stroke="black" points="682.708,-18.6375 672.539,-21.6123 682.343,-25.6281 682.708,-18.6375"/>
</g>
<!-- lockmanager&#45;impl -->
<g id="node16" class="node"><title>lockmanager&#45;impl</title>
<ellipse fill="none" stroke="black" cx="1709.74" cy="-90" rx="75.2868" ry="18"/>
<text text-anchor="middle" x="1709.74" y="-86.3" font-family="Times New Roman,serif" font-size="14.00">lockmanager&#45;impl</text>
</g>
<!-- interfacemanager&#45;impl&#45;&gt;lockmanager&#45;impl -->
<g id="edge24" class="edge"><title>interfacemanager&#45;impl&#45;&gt;lockmanager&#45;impl</title>
<path fill="none" stroke="black" d="M1374.31,-150.274C1438.98,-139.999 1538.6,-123.767 1624.74,-108 1631.06,-106.844 1637.63,-105.602 1644.19,-104.333"/>
<polygon fill="black" stroke="black" points="1645.33,-107.679 1654.47,-102.328 1643.98,-100.808 1645.33,-107.679"/>
</g>
<!-- interfacemanager&#45;api -->
<g id="node19" class="node"><title>interfacemanager&#45;api</title>
<ellipse fill="none" stroke="black" cx="616.745" cy="-90" rx="85.2851" ry="18"/>
<text text-anchor="middle" x="616.745" y="-86.3" font-family="Times New Roman,serif" font-size="14.00">interfacemanager&#45;api</text>
</g>
<!-- interfacemanager&#45;impl&#45;&gt;interfacemanager&#45;api -->
<g id="edge42" class="edge"><title>interfacemanager&#45;impl&#45;&gt;interfacemanager&#45;api</title>
<path fill="none" stroke="black" d="M1232.2,-151.493C1211.67,-148.943 1189.35,-146.267 1168.74,-144 1004.89,-125.971 813.277,-108.349 704.344,-98.6553"/>
<polygon fill="black" stroke="black" points="704.334,-95.1408 694.064,-97.7422 703.715,-102.113 704.334,-95.1408"/>
</g>
<!-- interfacemanager&#45;impl&#45;&gt;idmanager&#45;api -->
<g id="edge31" class="edge"><title>interfacemanager&#45;impl&#45;&gt;idmanager&#45;api</title>
<path fill="none" stroke="black" d="M1256.71,-146.749C1236.55,-138.52 1214.71,-126.112 1200.74,-108 1187.21,-90.4513 1182.81,-65.4172 1181.59,-46.3671"/>
<polygon fill="black" stroke="black" points="1185.08,-46.0728 1181.2,-36.215 1178.08,-46.3423 1185.08,-46.0728"/>
</g>
<!-- alivenessmonitor&#45;api -->
<g id="node28" class="node"><title>alivenessmonitor&#45;api</title>
<ellipse fill="none" stroke="black" cx="1417.74" cy="-18" rx="85.2851" ry="18"/>
<text text-anchor="middle" x="1417.74" y="-14.3" font-family="Times New Roman,serif" font-size="14.00">alivenessmonitor&#45;api</text>
</g>
<!-- interfacemanager&#45;impl&#45;&gt;alivenessmonitor&#45;api -->
<g id="edge39" class="edge"><title>interfacemanager&#45;impl&#45;&gt;alivenessmonitor&#45;api</title>
<path fill="none" stroke="black" d="M1348.3,-145.952C1366.43,-137.479 1386.24,-125.099 1398.74,-108 1411.83,-90.115 1416.28,-65.1131 1417.63,-46.1609"/>
<polygon fill="black" stroke="black" points="1421.13,-46.2225 1418.1,-36.0698 1414.14,-45.8951 1421.13,-46.2225"/>
</g>
<!-- resourcemanager -->
<g id="node6" class="node"><title>resourcemanager</title>
<ellipse fill="none" stroke="black" cx="1011.74" cy="-234" rx="72.2875" ry="18"/>
<text text-anchor="middle" x="1011.74" y="-230.3" font-family="Times New Roman,serif" font-size="14.00">resourcemanager</text>
</g>
<!-- resourcemanager&#45;impl -->
<g id="node7" class="node"><title>resourcemanager&#45;impl</title>
<ellipse fill="none" stroke="black" cx="1068.74" cy="-162" rx="90.9839" ry="18"/>
<text text-anchor="middle" x="1068.74" y="-158.3" font-family="Times New Roman,serif" font-size="14.00">resourcemanager&#45;impl</text>
</g>
<!-- resourcemanager&#45;&gt;resourcemanager&#45;impl -->
<g id="edge4" class="edge"><title>resourcemanager&#45;&gt;resourcemanager&#45;impl</title>
<path fill="none" stroke="black" d="M1025.54,-216.055C1032.37,-207.668 1040.75,-197.376 1048.31,-188.096"/>
<polygon fill="black" stroke="black" points="1051.08,-190.24 1054.68,-180.275 1045.65,-185.82 1051.08,-190.24"/>
</g>
<!-- resourcemanager&#45;api -->
<g id="node25" class="node"><title>resourcemanager&#45;api</title>
<ellipse fill="none" stroke="black" cx="1029.74" cy="-90" rx="85.5853" ry="18"/>
<text text-anchor="middle" x="1029.74" y="-86.3" font-family="Times New Roman,serif" font-size="14.00">resourcemanager&#45;api</text>
</g>
<!-- resourcemanager&#45;&gt;resourcemanager&#45;api -->
<g id="edge61" class="edge"><title>resourcemanager&#45;&gt;resourcemanager&#45;api</title>
<path fill="none" stroke="black" d="M1065.37,-221.894C1105.8,-212.306 1156.33,-197.294 1168.74,-180 1178.08,-167.002 1177.82,-157.176 1168.74,-144 1154.9,-123.902 1132.33,-111.42 1109.37,-103.669"/>
<polygon fill="black" stroke="black" points="1110.12,-100.237 1099.53,-100.629 1108.06,-106.925 1110.12,-100.237"/>
</g>
<!-- resourcemanager&#45;impl&#45;&gt;mdsalutil&#45;api -->
<g id="edge19" class="edge"><title>resourcemanager&#45;impl&#45;&gt;mdsalutil&#45;api</title>
<path fill="none" stroke="black" d="M1022.5,-146.471C936.487,-119.45 752.729,-61.7207 665.128,-34.2003"/>
<polygon fill="black" stroke="black" points="666.029,-30.8146 655.44,-31.1565 663.931,-37.4928 666.029,-30.8146"/>
</g>
<!-- resourcemanager&#45;impl&#45;&gt;idmanager&#45;api -->
<g id="edge45" class="edge"><title>resourcemanager&#45;impl&#45;&gt;idmanager&#45;api</title>
<path fill="none" stroke="black" d="M999.646,-150.216C974.95,-142.665 949.584,-129.827 934.745,-108 925.749,-94.7683 924.687,-84.444 934.745,-72 956.726,-44.802 1047.17,-30.9228 1112.25,-24.3229"/>
<polygon fill="black" stroke="black" points="1112.85,-27.781 1122.46,-23.3252 1112.17,-20.8141 1112.85,-27.781"/>
</g>
<!-- resourcemanager&#45;impl&#45;&gt;resourcemanager&#45;api -->
<g id="edge38" class="edge"><title>resourcemanager&#45;impl&#45;&gt;resourcemanager&#45;api</title>
<path fill="none" stroke="black" d="M1059.3,-144.055C1054.82,-136.007 1049.36,-126.205 1044.36,-117.226"/>
<polygon fill="black" stroke="black" points="1047.29,-115.308 1039.37,-108.275 1041.18,-118.714 1047.29,-115.308"/>
</g>
<!-- genius -->
<g id="node9" class="node"><title>genius</title>
<ellipse fill="none" stroke="black" cx="1091.74" cy="-378" rx="33.5952" ry="18"/>
<text text-anchor="middle" x="1091.74" y="-374.3" font-family="Times New Roman,serif" font-size="14.00">genius</text>
</g>
<!-- genius&#45;&gt;mdsalutil -->
<g id="edge49" class="edge"><title>genius&#45;&gt;mdsalutil</title>
<path fill="none" stroke="black" d="M1058.04,-376.118C943.586,-372.825 570.662,-359.558 456.745,-324 356.006,-292.556 252.057,-220.331 204.063,-184.28"/>
<polygon fill="black" stroke="black" points="206.119,-181.447 196.036,-178.194 201.89,-187.025 206.119,-181.447"/>
</g>
<!-- genius&#45;&gt;resourcemanager -->
<g id="edge20" class="edge"><title>genius&#45;&gt;resourcemanager</title>
<path fill="none" stroke="black" d="M1082.41,-360.433C1068.58,-335.875 1042.51,-289.604 1026.19,-260.646"/>
<polygon fill="black" stroke="black" points="1029.22,-258.896 1021.27,-251.902 1023.13,-262.332 1029.22,-258.896"/>
</g>
<!-- interfacemanager -->
<g id="node10" class="node"><title>interfacemanager</title>
<ellipse fill="none" stroke="black" cx="1151.74" cy="-306" rx="71.4873" ry="18"/>
<text text-anchor="middle" x="1151.74" y="-302.3" font-family="Times New Roman,serif" font-size="14.00">interfacemanager</text>
</g>
<!-- genius&#45;&gt;interfacemanager -->
<g id="edge7" class="edge"><title>genius&#45;&gt;interfacemanager</title>
<path fill="none" stroke="black" d="M1105.36,-361.116C1112.81,-352.418 1122.22,-341.448 1130.61,-331.663"/>
<polygon fill="black" stroke="black" points="1133.5,-333.668 1137.35,-323.797 1128.18,-329.112 1133.5,-333.668"/>
</g>
<!-- alivenessmonitor -->
<g id="node12" class="node"><title>alivenessmonitor</title>
<ellipse fill="none" stroke="black" cx="1417.74" cy="-234" rx="71.4873" ry="18"/>
<text text-anchor="middle" x="1417.74" y="-230.3" font-family="Times New Roman,serif" font-size="14.00">alivenessmonitor</text>
</g>
<!-- genius&#45;&gt;alivenessmonitor -->
<g id="edge14" class="edge"><title>genius&#45;&gt;alivenessmonitor</title>
<path fill="none" stroke="black" d="M1119.12,-367.412C1147.54,-357.277 1193.15,-340.503 1231.74,-324 1283.18,-302.006 1341.12,-273.703 1378.46,-254.987"/>
<polygon fill="black" stroke="black" points="1380.13,-258.064 1387.5,-250.445 1376.99,-251.81 1380.13,-258.064"/>
</g>
<!-- idmanager -->
<g id="node14" class="node"><title>idmanager</title>
<ellipse fill="none" stroke="black" cx="1562.74" cy="-234" rx="48.1917" ry="18"/>
<text text-anchor="middle" x="1562.74" y="-230.3" font-family="Times New Roman,serif" font-size="14.00">idmanager</text>
</g>
<!-- genius&#45;&gt;idmanager -->
<g id="edge62" class="edge"><title>genius&#45;&gt;idmanager</title>
<path fill="none" stroke="black" d="M1121.61,-369.213C1159.63,-359.205 1227.29,-341.078 1284.74,-324 1367.74,-299.329 1463.79,-267.943 1518.5,-249.797"/>
<polygon fill="black" stroke="black" points="1519.83,-253.042 1528.22,-246.567 1517.62,-246.399 1519.83,-253.042"/>
</g>
<!-- lockmanager -->
<g id="node17" class="node"><title>lockmanager</title>
<ellipse fill="none" stroke="black" cx="1935.74" cy="-162" rx="56.59" ry="18"/>
<text text-anchor="middle" x="1935.74" y="-158.3" font-family="Times New Roman,serif" font-size="14.00">lockmanager</text>
</g>
<!-- genius&#45;&gt;lockmanager -->
<g id="edge33" class="edge"><title>genius&#45;&gt;lockmanager</title>
<path fill="none" stroke="black" d="M1123.31,-371.424C1173.13,-362.458 1272.96,-343.821 1356.74,-324 1554.78,-277.148 1787.16,-208.227 1886.59,-178.065"/>
<polygon fill="black" stroke="black" points="1887.81,-181.354 1896.36,-175.097 1885.77,-174.656 1887.81,-181.354"/>
</g>
<!-- itm -->
<g id="node23" class="node"><title>itm</title>
<ellipse fill="none" stroke="black" cx="561.745" cy="-306" rx="27" ry="18"/>
<text text-anchor="middle" x="561.745" y="-302.3" font-family="Times New Roman,serif" font-size="14.00">itm</text>
</g>
<!-- genius&#45;&gt;itm -->
<g id="edge27" class="edge"><title>genius&#45;&gt;itm</title>
<path fill="none" stroke="black" d="M1059.39,-372.727C966.036,-360.397 696.629,-324.815 598.259,-311.823"/>
<polygon fill="black" stroke="black" points="598.576,-308.334 588.204,-310.495 597.659,-315.274 598.576,-308.334"/>
</g>
<!-- arputil -->
<g id="node26" class="node"><title>arputil</title>
<ellipse fill="none" stroke="black" cx="391.745" cy="-234" rx="33.2948" ry="18"/>
<text text-anchor="middle" x="391.745" y="-230.3" font-family="Times New Roman,serif" font-size="14.00">arputil</text>
</g>
<!-- genius&#45;&gt;arputil -->
<g id="edge36" class="edge"><title>genius&#45;&gt;arputil</title>
<path fill="none" stroke="black" d="M1057.97,-375.994C951.629,-372.492 624.959,-359.076 525.745,-324 483.215,-308.964 441.01,-277.473 415.65,-256.276"/>
<polygon fill="black" stroke="black" points="417.912,-253.605 408.029,-249.789 413.375,-258.936 417.912,-253.605"/>
</g>
<!-- interfacemanager&#45;&gt;interfacemanager&#45;impl -->
<g id="edge9" class="edge"><title>interfacemanager&#45;&gt;interfacemanager&#45;impl</title>
<path fill="none" stroke="black" d="M1212.89,-296.531C1241.38,-289.391 1273.22,-276.234 1292.74,-252 1306.57,-234.843 1309.1,-209.563 1308.59,-190.326"/>
<polygon fill="black" stroke="black" points="1312.07,-189.869 1308.03,-180.078 1305.08,-190.255 1312.07,-189.869"/>
</g>
<!-- interfacemanager&#45;shell -->
<g id="node11" class="node"><title>interfacemanager&#45;shell</title>
<ellipse fill="none" stroke="black" cx="1192.74" cy="-234" rx="90.9839" ry="18"/>
<text text-anchor="middle" x="1192.74" y="-230.3" font-family="Times New Roman,serif" font-size="14.00">interfacemanager&#45;shell</text>
</g>
<!-- interfacemanager&#45;&gt;interfacemanager&#45;shell -->
<g id="edge8" class="edge"><title>interfacemanager&#45;&gt;interfacemanager&#45;shell</title>
<path fill="none" stroke="black" d="M1161.67,-288.055C1166.43,-279.922 1172.25,-269.998 1177.55,-260.943"/>
<polygon fill="black" stroke="black" points="1180.59,-262.673 1182.63,-252.275 1174.55,-259.135 1180.59,-262.673"/>
</g>
<!-- interfacemanager&#45;&gt;interfacemanager&#45;api -->
<g id="edge23" class="edge"><title>interfacemanager&#45;&gt;interfacemanager&#45;api</title>
<path fill="none" stroke="black" d="M1086.35,-298.69C959.51,-285.034 687.209,-248.321 626.745,-180 612.051,-163.397 610.623,-137.677 612.242,-118.148"/>
<polygon fill="black" stroke="black" points="615.74,-118.363 613.39,-108.032 608.785,-117.574 615.74,-118.363"/>
</g>
<!-- interfacemanager&#45;shell&#45;&gt;interfacemanager&#45;impl -->
<g id="edge18" class="edge"><title>interfacemanager&#45;shell&#45;&gt;interfacemanager&#45;impl</title>
<path fill="none" stroke="black" d="M1219.24,-216.588C1234.54,-207.109 1253.98,-195.068 1270.55,-184.802"/>
<polygon fill="black" stroke="black" points="1272.76,-187.551 1279.42,-179.309 1269.07,-181.6 1272.76,-187.551"/>
</g>
<!-- interfacemanager&#45;shell&#45;&gt;interfacemanager&#45;api -->
<g id="edge21" class="edge"><title>interfacemanager&#45;shell&#45;&gt;interfacemanager&#45;api</title>
<path fill="none" stroke="black" d="M1128.31,-221.209C1116.51,-219.288 1104.28,-217.454 1092.74,-216 996.289,-203.842 736.128,-236.123 656.745,-180 636.484,-165.676 626.314,-138.609 621.319,-118.069"/>
<polygon fill="black" stroke="black" points="624.683,-117.063 619.154,-108.026 617.84,-118.539 624.683,-117.063"/>
</g>
<!-- alivenessmonitor&#45;impl -->
<g id="node13" class="node"><title>alivenessmonitor&#45;impl</title>
<ellipse fill="none" stroke="black" cx="1299.74" cy="-90" rx="89.8845" ry="18"/>
<text text-anchor="middle" x="1299.74" y="-86.3" font-family="Times New Roman,serif" font-size="14.00">alivenessmonitor&#45;impl</text>
</g>
<!-- alivenessmonitor&#45;&gt;alivenessmonitor&#45;impl -->
<g id="edge10" class="edge"><title>alivenessmonitor&#45;&gt;alivenessmonitor&#45;impl</title>
<path fill="none" stroke="black" d="M1419.65,-215.881C1420.87,-196.587 1419.99,-165.16 1404.74,-144 1393.57,-128.482 1376.51,-117.224 1359.38,-109.187"/>
<polygon fill="black" stroke="black" points="1360.46,-105.838 1349.89,-105.047 1357.66,-112.254 1360.46,-105.838"/>
</g>
<!-- alivenessmonitor&#45;impl&#45;protocols -->
<g id="node27" class="node"><title>alivenessmonitor&#45;impl&#45;protocols</title>
<ellipse fill="none" stroke="black" cx="793.745" cy="-162" rx="128.077" ry="18"/>
<text text-anchor="middle" x="793.745" y="-158.3" font-family="Times New Roman,serif" font-size="14.00">alivenessmonitor&#45;impl&#45;protocols</text>
</g>
<!-- alivenessmonitor&#45;&gt;alivenessmonitor&#45;impl&#45;protocols -->
<g id="edge50" class="edge"><title>alivenessmonitor&#45;&gt;alivenessmonitor&#45;impl&#45;protocols</title>
<path fill="none" stroke="black" d="M1357.07,-224.384C1336.65,-221.581 1313.73,-218.54 1292.74,-216 1160,-199.928 1007.07,-184.077 905.866,-173.959"/>
<polygon fill="black" stroke="black" points="905.923,-170.448 895.625,-172.937 905.228,-177.413 905.923,-170.448"/>
</g>
<!-- alivenessmonitor&#45;&gt;alivenessmonitor&#45;api -->
<g id="edge63" class="edge"><title>alivenessmonitor&#45;&gt;alivenessmonitor&#45;api</title>
<path fill="none" stroke="black" d="M1472.42,-222.343C1540.38,-208.95 1649.68,-186.881 1667.74,-180 1736.67,-153.74 1842.12,-127.675 1793.74,-72 1775.18,-50.6385 1612.36,-34.0886 1507.15,-25.5061"/>
<polygon fill="black" stroke="black" points="1507.4,-22.0153 1497.16,-24.7005 1506.84,-28.9927 1507.4,-22.0153"/>
</g>
<!-- alivenessmonitor&#45;impl&#45;&gt;mdsalutil&#45;api -->
<g id="edge28" class="edge"><title>alivenessmonitor&#45;impl&#45;&gt;mdsalutil&#45;api</title>
<path fill="none" stroke="black" d="M1225.71,-79.8317C1203.84,-77.2052 1179.84,-74.4042 1157.74,-72 985.407,-53.2445 781.844,-34.1167 680.599,-24.8075"/>
<polygon fill="black" stroke="black" points="680.813,-21.3126 670.535,-23.8835 680.173,-28.2832 680.813,-21.3126"/>
</g>
<!-- alivenessmonitor&#45;impl&#45;&gt;idmanager&#45;api -->
<g id="edge26" class="edge"><title>alivenessmonitor&#45;impl&#45;&gt;idmanager&#45;api</title>
<path fill="none" stroke="black" d="M1272.38,-72.7646C1255.8,-62.9283 1234.48,-50.2845 1216.69,-39.7298"/>
<polygon fill="black" stroke="black" points="1218.14,-36.5186 1207.75,-34.4268 1214.56,-42.539 1218.14,-36.5186"/>
</g>
<!-- alivenessmonitor&#45;impl&#45;&gt;alivenessmonitor&#45;api -->
<g id="edge52" class="edge"><title>alivenessmonitor&#45;impl&#45;&gt;alivenessmonitor&#45;api</title>
<path fill="none" stroke="black" d="M1327.11,-72.7646C1343.35,-63.1346 1364.12,-50.8138 1381.68,-40.3968"/>
<polygon fill="black" stroke="black" points="1383.71,-43.2596 1390.52,-35.1473 1380.14,-37.2392 1383.71,-43.2596"/>
</g>
<!-- idmanager&#45;&gt;idmanager&#45;shell -->
<g id="edge12" class="edge"><title>idmanager&#45;&gt;idmanager&#45;shell</title>
<path fill="none" stroke="black" d="M1561.26,-215.697C1560.6,-207.983 1559.81,-198.712 1559.07,-190.112"/>
<polygon fill="black" stroke="black" points="1562.55,-189.769 1558.21,-180.104 1555.58,-190.367 1562.55,-189.769"/>
</g>
<!-- idmanager&#45;&gt;idmanager&#45;impl -->
<g id="edge53" class="edge"><title>idmanager&#45;&gt;idmanager&#45;impl</title>
<path fill="none" stroke="black" d="M1591.59,-219.394C1606.83,-210.514 1624.13,-197.335 1632.74,-180 1639.87,-165.673 1640.43,-158.032 1632.74,-144 1624.65,-129.224 1610.49,-117.97 1596.13,-109.717"/>
<polygon fill="black" stroke="black" points="1597.68,-106.58 1587.21,-104.96 1594.39,-112.756 1597.68,-106.58"/>
</g>
<!-- idmanager&#45;&gt;idmanager&#45;api -->
<g id="edge64" class="edge"><title>idmanager&#45;&gt;idmanager&#45;api</title>
<path fill="none" stroke="black" d="M1601.53,-223.306C1683.16,-201.211 1859.94,-143.454 1793.74,-72 1758.15,-33.577 1375.87,-41.1141 1323.74,-36 1298.66,-33.5393 1271.15,-30.3574 1247.07,-27.4131"/>
<polygon fill="black" stroke="black" points="1247.34,-23.9191 1236.98,-26.1686 1246.48,-30.8664 1247.34,-23.9191"/>
</g>
<!-- itm&#45;impl -->
<g id="node15" class="node"><title>itm&#45;impl</title>
<ellipse fill="none" stroke="black" cx="561.745" cy="-234" rx="40.0939" ry="18"/>
<text text-anchor="middle" x="561.745" y="-230.3" font-family="Times New Roman,serif" font-size="14.00">itm&#45;impl</text>
</g>
<!-- itm&#45;impl&#45;&gt;idmanager&#45;impl -->
<g id="edge16" class="edge"><title>itm&#45;impl&#45;&gt;idmanager&#45;impl</title>
<path fill="none" stroke="black" d="M601.714,-231.026C763.896,-222.946 1366.06,-192.249 1404.74,-180 1449.4,-165.86 1494.38,-135.082 1522.14,-113.708"/>
<polygon fill="black" stroke="black" points="1524.47,-116.328 1530.18,-107.405 1520.15,-110.819 1524.47,-116.328"/>
</g>
<!-- itm&#45;impl&#45;&gt;mdsalutil&#45;api -->
<g id="edge51" class="edge"><title>itm&#45;impl&#45;&gt;mdsalutil&#45;api</title>
<path fill="none" stroke="black" d="M524.554,-227.052C462.359,-216.734 342.825,-195.167 330.745,-180 320.776,-167.485 325.36,-159.067 330.745,-144 344.668,-105.042 354.623,-93.8652 389.745,-72 438.556,-41.6123 503.105,-28.6295 550.89,-23.0925"/>
<polygon fill="black" stroke="black" points="551.558,-26.5409 561.125,-21.99 550.808,-19.5812 551.558,-26.5409"/>
</g>
<!-- itm&#45;impl&#45;&gt;lockmanager&#45;impl -->
<g id="edge13" class="edge"><title>itm&#45;impl&#45;&gt;lockmanager&#45;impl</title>
<path fill="none" stroke="black" d="M601.535,-231.136C794.83,-222.068 1626.83,-182.883 1632.74,-180 1660.42,-166.51 1682.2,-138.061 1695.43,-116.94"/>
<polygon fill="black" stroke="black" points="1698.58,-118.49 1700.73,-108.116 1692.58,-114.884 1698.58,-118.49"/>
</g>
<!-- itm&#45;api -->
<g id="node18" class="node"><title>itm&#45;api</title>
<ellipse fill="none" stroke="black" cx="497.745" cy="-162" rx="35.9954" ry="18"/>
<text text-anchor="middle" x="497.745" y="-158.3" font-family="Times New Roman,serif" font-size="14.00">itm&#45;api</text>
</g>
<!-- itm&#45;impl&#45;&gt;itm&#45;api -->
<g id="edge35" class="edge"><title>itm&#45;impl&#45;&gt;itm&#45;api</title>
<path fill="none" stroke="black" d="M547.222,-217.116C538.875,-207.987 528.241,-196.355 518.971,-186.217"/>
<polygon fill="black" stroke="black" points="521.54,-183.84 512.21,-178.821 516.374,-188.563 521.54,-183.84"/>
</g>
<!-- itm&#45;impl&#45;&gt;interfacemanager&#45;api -->
<g id="edge37" class="edge"><title>itm&#45;impl&#45;&gt;interfacemanager&#45;api</title>
<path fill="none" stroke="black" d="M564.959,-215.824C568.698,-197.565 575.675,-168.063 585.745,-144 589.613,-134.757 594.82,-125.155 599.861,-116.706"/>
<polygon fill="black" stroke="black" points="602.923,-118.408 605.195,-108.06 596.965,-114.733 602.923,-118.408"/>
</g>
<!-- itm&#45;impl&#45;&gt;idmanager&#45;api -->
<g id="edge56" class="edge"><title>itm&#45;impl&#45;&gt;idmanager&#45;api</title>
<path fill="none" stroke="black" d="M602.206,-233.525C688.991,-233.697 888.57,-228.664 930.745,-180 962.246,-143.65 893.346,-109.278 923.745,-72 947.074,-43.3906 1043.61,-29.7865 1111.72,-23.6405"/>
<polygon fill="black" stroke="black" points="1112.31,-27.1024 1121.97,-22.7519 1111.71,-20.1286 1112.31,-27.1024"/>
</g>
<!-- lockmanager&#45;impl&#45;&gt;lockmanager&#45;api -->
<g id="edge40" class="edge"><title>lockmanager&#45;impl&#45;&gt;lockmanager&#45;api</title>
<path fill="none" stroke="black" d="M1709.74,-71.6966C1709.74,-63.9827 1709.74,-54.7125 1709.74,-46.1124"/>
<polygon fill="black" stroke="black" points="1713.24,-46.1043 1709.74,-36.1043 1706.24,-46.1044 1713.24,-46.1043"/>
</g>
<!-- lockmanager&#45;&gt;lockmanager&#45;impl -->
<g id="edge15" class="edge"><title>lockmanager&#45;&gt;lockmanager&#45;impl</title>
<path fill="none" stroke="black" d="M1896.64,-148.887C1859.79,-137.476 1804.29,-120.284 1763.34,-107.599"/>
<polygon fill="black" stroke="black" points="1764.37,-104.256 1753.78,-104.64 1762.3,-110.942 1764.37,-104.256"/>
</g>
<!-- lockmanager&#45;&gt;lockmanager&#45;api -->
<g id="edge65" class="edge"><title>lockmanager&#45;&gt;lockmanager&#45;api</title>
<path fill="none" stroke="black" d="M1926.39,-144.166C1914.51,-124.244 1892.22,-91.3443 1864.74,-72 1837.69,-52.9512 1803.21,-40.2697 1773.64,-32.1025"/>
<polygon fill="black" stroke="black" points="1774.39,-28.6784 1763.82,-29.5031 1772.59,-35.4454 1774.39,-28.6784"/>
</g>
<!-- itm&#45;api&#45;&gt;interfacemanager&#45;api -->
<g id="edge17" class="edge"><title>itm&#45;api&#45;&gt;interfacemanager&#45;api</title>
<path fill="none" stroke="black" d="M520.128,-147.834C537.176,-137.805 560.993,-123.795 580.714,-112.194"/>
<polygon fill="black" stroke="black" points="582.603,-115.144 589.448,-107.057 579.054,-109.11 582.603,-115.144"/>
</g>
<!-- interfacemanager&#45;api&#45;&gt;mdsalutil&#45;api -->
<g id="edge46" class="edge"><title>interfacemanager&#45;api&#45;&gt;mdsalutil&#45;api</title>
<path fill="none" stroke="black" d="M616.745,-71.6966C616.745,-63.9827 616.745,-54.7125 616.745,-46.1124"/>
<polygon fill="black" stroke="black" points="620.245,-46.1043 616.745,-36.1043 613.245,-46.1044 620.245,-46.1043"/>
</g>
<!-- arputil&#45;impl -->
<g id="node20" class="node"><title>arputil&#45;impl</title>
<ellipse fill="none" stroke="black" cx="391.745" cy="-162" rx="51.9908" ry="18"/>
<text text-anchor="middle" x="391.745" y="-158.3" font-family="Times New Roman,serif" font-size="14.00">arputil&#45;impl</text>
</g>
<!-- arputil&#45;impl&#45;&gt;mdsalutil&#45;api -->
<g id="edge22" class="edge"><title>arputil&#45;impl&#45;&gt;mdsalutil&#45;api</title>
<path fill="none" stroke="black" d="M390.432,-143.826C389.9,-123.883 392.26,-91.2683 410.745,-72 430.619,-51.2835 502.338,-36.1812 555.596,-27.5152"/>
<polygon fill="black" stroke="black" points="556.317,-30.9447 565.645,-25.9201 555.22,-24.0312 556.317,-30.9447"/>
</g>
<!-- arputil&#45;impl&#45;&gt;interfacemanager&#45;api -->
<g id="edge58" class="edge"><title>arputil&#45;impl&#45;&gt;interfacemanager&#45;api</title>
<path fill="none" stroke="black" d="M429.151,-149.362C465.245,-138.133 520.319,-120.999 561.469,-108.197"/>
<polygon fill="black" stroke="black" points="562.572,-111.519 571.081,-105.206 560.493,-104.835 562.572,-111.519"/>
</g>
<!-- arputil&#45;api -->
<g id="node21" class="node"><title>arputil&#45;api</title>
<ellipse fill="none" stroke="black" cx="466.745" cy="-90" rx="46.5926" ry="18"/>
<text text-anchor="middle" x="466.745" y="-86.3" font-family="Times New Roman,serif" font-size="14.00">arputil&#45;api</text>
</g>
<!-- arputil&#45;impl&#45;&gt;arputil&#45;api -->
<g id="edge25" class="edge"><title>arputil&#45;impl&#45;&gt;arputil&#45;api</title>
<path fill="none" stroke="black" d="M409.14,-144.765C418.959,-135.6 431.39,-123.998 442.189,-113.919"/>
<polygon fill="black" stroke="black" points="444.78,-116.288 449.702,-106.906 440.004,-111.17 444.78,-116.288"/>
</g>
<!-- itm&#45;&gt;itm&#45;impl -->
<g id="edge47" class="edge"><title>itm&#45;&gt;itm&#45;impl</title>
<path fill="none" stroke="black" d="M561.745,-287.697C561.745,-279.983 561.745,-270.712 561.745,-262.112"/>
<polygon fill="black" stroke="black" points="565.245,-262.104 561.745,-252.104 558.245,-262.104 565.245,-262.104"/>
</g>
<!-- itm&#45;&gt;itm&#45;api -->
<g id="edge55" class="edge"><title>itm&#45;&gt;itm&#45;api</title>
<path fill="none" stroke="black" d="M544.969,-291.493C534.012,-281.71 520.369,-267.522 512.745,-252 503.274,-232.719 499.645,-208.565 498.317,-190.287"/>
<polygon fill="black" stroke="black" points="501.811,-190.081 497.774,-180.285 494.821,-190.46 501.811,-190.081"/>
</g>
<!-- mdsalutil&#45;testutils&#45;&gt;mdsalutil&#45;api -->
<g id="edge29" class="edge"><title>mdsalutil&#45;testutils&#45;&gt;mdsalutil&#45;api</title>
<path fill="none" stroke="black" d="M308.432,-78.0848C318.837,-76.055 329.621,-73.9576 339.745,-72 415.547,-57.3421 503.063,-40.6331 559.102,-29.961"/>
<polygon fill="black" stroke="black" points="560.02,-33.349 569.189,-28.0404 558.711,-26.4726 560.02,-33.349"/>
</g>
<!-- resourcemanager&#45;api&#45;&gt;idmanager&#45;api -->
<g id="edge30" class="edge"><title>resourcemanager&#45;api&#45;&gt;idmanager&#45;api</title>
<path fill="none" stroke="black" d="M1063.86,-73.2906C1086.65,-62.7929 1116.76,-48.9281 1140.84,-37.8376"/>
<polygon fill="black" stroke="black" points="1142.46,-40.9442 1150.08,-33.5821 1139.53,-34.5861 1142.46,-40.9442"/>
</g>
<!-- arputil&#45;&gt;arputil&#45;impl -->
<g id="edge32" class="edge"><title>arputil&#45;&gt;arputil&#45;impl</title>
<path fill="none" stroke="black" d="M391.745,-215.697C391.745,-207.983 391.745,-198.712 391.745,-190.112"/>
<polygon fill="black" stroke="black" points="395.245,-190.104 391.745,-180.104 388.245,-190.104 395.245,-190.104"/>
</g>
<!-- arputil&#45;&gt;arputil&#45;api -->
<g id="edge57" class="edge"><title>arputil&#45;&gt;arputil&#45;api</title>
<path fill="none" stroke="black" d="M369.317,-220.425C355.38,-211.234 338.659,-197.361 330.745,-180 324.108,-165.441 321.716,-157.209 330.745,-144 348.909,-117.426 382.531,-104.175 411.798,-97.5677"/>
<polygon fill="black" stroke="black" points="412.839,-100.927 421.937,-95.4968 411.438,-94.069 412.839,-100.927"/>
</g>
<!-- alivenessmonitor&#45;impl&#45;protocols&#45;&gt;alivenessmonitor&#45;impl -->
<g id="edge59" class="edge"><title>alivenessmonitor&#45;impl&#45;protocols&#45;&gt;alivenessmonitor&#45;impl</title>
<path fill="none" stroke="black" d="M881.594,-148.847C976.248,-135.752 1125.67,-115.081 1217.92,-102.319"/>
<polygon fill="black" stroke="black" points="1218.62,-105.756 1228.05,-100.918 1217.66,-98.8217 1218.62,-105.756"/>
</g>
<!-- alivenessmonitor&#45;impl&#45;protocols&#45;&gt;interfacemanager&#45;api -->
<g id="edge34" class="edge"><title>alivenessmonitor&#45;impl&#45;protocols&#45;&gt;interfacemanager&#45;api</title>
<path fill="none" stroke="black" d="M752.692,-144.765C726.383,-134.36 692.13,-120.813 664.589,-109.921"/>
<polygon fill="black" stroke="black" points="665.737,-106.612 655.151,-106.189 663.163,-113.121 665.737,-106.612"/>
</g>
<!-- alivenessmonitor&#45;impl&#45;protocols&#45;&gt;arputil&#45;api -->
<g id="edge41" class="edge"><title>alivenessmonitor&#45;impl&#45;protocols&#45;&gt;arputil&#45;api</title>
<path fill="none" stroke="black" d="M715.011,-147.784C660.677,-138.131 586.943,-123.978 522.745,-108 518.97,-107.061 515.072,-106.022 511.173,-104.935"/>
<polygon fill="black" stroke="black" points="512.121,-101.566 501.543,-102.162 510.184,-108.293 512.121,-101.566"/>
</g>
</g>
</svg>
