<?xml version="1.0" encoding="UTF-8" standalone="no"?>
<!DOCTYPE svg PUBLIC "-//W3C//DTD SVG 1.1//EN"
 "http://www.w3.org/Graphics/SVG/1.1/DTD/svg11.dtd">
<!-- Generated by graphviz version 2.38.0 (20140413.2041)
 -->
<!-- Title: structs Pages: 1 -->
<svg width="1158pt" height="953pt"
 viewBox="0.00 0.00 1158.11 953.00" xmlns="http://www.w3.org/2000/svg" xmlns:xlink="http://www.w3.org/1999/xlink">
<g id="graph0" class="graph" transform="scale(1 1) rotate(0) translate(4 949)">
<title>structs</title>
<polygon fill="white" stroke="none" points="-4,4 -4,-949 1154.11,-949 1154.11,4 -4,4"/>
<!-- interfacemanager&#45;impl -->
<g id="node1" class="node"><title>interfacemanager&#45;impl</title>
<ellipse fill="none" stroke="black" cx="517.21" cy="-453" rx="90.1842" ry="18"/>
<text text-anchor="middle" x="517.21" y="-449.3" font-family="Times New Roman,serif" font-size="14.00">interfacemanager&#45;impl</text>
</g>
<!-- hwvtepsouthbound&#45;api -->
<g id="node2" class="node"><title>hwvtepsouthbound&#45;api</title>
<ellipse fill="none" stroke="black" cx="767.691" cy="-602" rx="94.4839" ry="18"/>
<text text-anchor="middle" x="767.691" y="-598.3" font-family="Times New Roman,serif" font-size="14.00">hwvtepsouthbound&#45;api</text>
</g>
<!-- interfacemanager&#45;impl&#45;&gt;hwvtepsouthbound&#45;api -->
<g id="edge1" class="edge"><title>interfacemanager&#45;impl&#45;&gt;hwvtepsouthbound&#45;api</title>
<path fill="none" stroke="black" d="M573.092,-467.252C595.033,-475.042 619.338,-486.549 637.45,-503 662.472,-525.729 647.686,-548.115 673.45,-570 680.179,-575.716 687.982,-580.427 696.153,-584.307"/>
<polygon fill="black" stroke="black" points="694.929,-587.591 705.497,-588.344 697.705,-581.165 694.929,-587.591"/>
</g>
<!-- interfacemanager&#45;api -->
<g id="node3" class="node"><title>interfacemanager&#45;api</title>
<ellipse fill="none" stroke="black" cx="767.691" cy="-764" rx="85.2851" ry="18"/>
<text text-anchor="middle" x="767.691" y="-760.3" font-family="Times New Roman,serif" font-size="14.00">interfacemanager&#45;api</text>
</g>
<!-- interfacemanager&#45;impl&#45;&gt;interfacemanager&#45;api -->
<g id="edge13" class="edge"><title>interfacemanager&#45;impl&#45;&gt;interfacemanager&#45;api</title>
<path fill="none" stroke="black" d="M580.443,-465.924C601.561,-473.354 623.354,-484.957 637.45,-503 702.23,-585.919 604.004,-657.947 673.45,-737 677.683,-741.819 682.719,-745.802 688.225,-749.091"/>
<polygon fill="black" stroke="black" points="686.722,-752.254 697.217,-753.709 689.92,-746.027 686.722,-752.254"/>
</g>
<!-- ietf&#45;interfaces -->
<g id="node4" class="node"><title>ietf&#45;interfaces</title>
<ellipse fill="none" stroke="black" cx="1024.02" cy="-603" rx="59.5901" ry="18"/>
<text text-anchor="middle" x="1024.02" y="-599.3" font-family="Times New Roman,serif" font-size="14.00">ietf&#45;interfaces</text>
</g>
<!-- interfacemanager&#45;impl&#45;&gt;ietf&#45;interfaces -->
<g id="edge28" class="edge"><title>interfacemanager&#45;impl&#45;&gt;ietf&#45;interfaces</title>
<path fill="none" stroke="black" d="M557.503,-469.231C580.795,-478.914 610.865,-491.52 637.45,-503 653.524,-509.941 656.905,-513.269 673.45,-519 770.717,-552.691 797.722,-552.47 897.933,-576 919.494,-581.063 943.231,-586.277 964.18,-590.756"/>
<polygon fill="black" stroke="black" points="963.709,-594.234 974.219,-592.893 965.166,-587.388 963.709,-594.234"/>
</g>
<!-- openflowplugin&#45;extension&#45;nicira -->
<g id="node5" class="node"><title>openflowplugin&#45;extension&#45;nicira</title>
<ellipse fill="none" stroke="black" cx="1024.02" cy="-549" rx="126.178" ry="18"/>
<text text-anchor="middle" x="1024.02" y="-545.3" font-family="Times New Roman,serif" font-size="14.00">openflowplugin&#45;extension&#45;nicira</text>
</g>
<!-- interfacemanager&#45;impl&#45;&gt;openflowplugin&#45;extension&#45;nicira -->
<g id="edge3" class="edge"><title>interfacemanager&#45;impl&#45;&gt;openflowplugin&#45;extension&#45;nicira</title>
<path fill="none" stroke="black" d="M575.937,-466.722C605.098,-473.474 641.075,-481.53 673.45,-488 759.82,-505.261 858.748,-522.268 929.269,-533.921"/>
<polygon fill="black" stroke="black" points="929.027,-537.428 939.463,-535.601 930.165,-530.521 929.027,-537.428"/>
</g>
<!-- mdsalutil&#45;api -->
<g id="node6" class="node"><title>mdsalutil&#45;api</title>
<ellipse fill="none" stroke="black" cx="1024.02" cy="-495" rx="56.59" ry="18"/>
<text text-anchor="middle" x="1024.02" y="-491.3" font-family="Times New Roman,serif" font-size="14.00">mdsalutil&#45;api</text>
</g>
<!-- interfacemanager&#45;impl&#45;&gt;mdsalutil&#45;api -->
<g id="edge4" class="edge"><title>interfacemanager&#45;impl&#45;&gt;mdsalutil&#45;api</title>
<path fill="none" stroke="black" d="M601.005,-459.888C701.197,-468.224 867.752,-482.082 958.778,-489.655"/>
<polygon fill="black" stroke="black" points="958.701,-493.161 968.957,-490.502 959.282,-486.185 958.701,-493.161"/>
</g>
<!-- model&#45;flow&#45;base -->
<g id="node7" class="node"><title>model&#45;flow&#45;base</title>
<ellipse fill="none" stroke="black" cx="767.691" cy="-396" rx="71.4873" ry="18"/>
<text text-anchor="middle" x="767.691" y="-392.3" font-family="Times New Roman,serif" font-size="14.00">model&#45;flow&#45;base</text>
</g>
<!-- interfacemanager&#45;impl&#45;&gt;model&#45;flow&#45;base -->
<g id="edge5" class="edge"><title>interfacemanager&#45;impl&#45;&gt;model&#45;flow&#45;base</title>
<path fill="none" stroke="black" d="M577.097,-439.492C615.302,-430.728 665.033,-419.32 703.976,-410.386"/>
<polygon fill="black" stroke="black" points="705.178,-413.702 714.142,-408.054 703.613,-406.879 705.178,-413.702"/>
</g>
<!-- southbound&#45;api -->
<g id="node8" class="node"><title>southbound&#45;api</title>
<ellipse fill="none" stroke="black" cx="1024.02" cy="-441" rx="67.6881" ry="18"/>
<text text-anchor="middle" x="1024.02" y="-437.3" font-family="Times New Roman,serif" font-size="14.00">southbound&#45;api</text>
</g>
<!-- interfacemanager&#45;impl&#45;&gt;southbound&#45;api -->
<g id="edge7" class="edge"><title>interfacemanager&#45;impl&#45;&gt;southbound&#45;api</title>
<path fill="none" stroke="black" d="M607.009,-450.889C703.17,-448.603 855,-444.994 946.205,-442.826"/>
<polygon fill="black" stroke="black" points="946.56,-446.319 956.474,-442.582 946.393,-439.321 946.56,-446.319"/>
</g>
<!-- lockmanager&#45;impl -->
<g id="node10" class="node"><title>lockmanager&#45;impl</title>
<ellipse fill="none" stroke="black" cx="767.691" cy="-342" rx="75.2868" ry="18"/>
<text text-anchor="middle" x="767.691" y="-338.3" font-family="Times New Roman,serif" font-size="14.00">lockmanager&#45;impl</text>
</g>
<!-- interfacemanager&#45;impl&#45;&gt;lockmanager&#45;impl -->
<g id="edge9" class="edge"><title>interfacemanager&#45;impl&#45;&gt;lockmanager&#45;impl</title>
<path fill="none" stroke="black" d="M545.653,-435.804C576.007,-417.348 626.805,-388.115 673.45,-369 683.479,-364.89 694.354,-361.141 705.016,-357.831"/>
<polygon fill="black" stroke="black" points="706.148,-361.146 714.718,-354.917 704.134,-354.442 706.148,-361.146"/>
</g>
<!-- testutils -->
<g id="node11" class="node"><title>testutils</title>
<ellipse fill="none" stroke="black" cx="767.691" cy="-288" rx="38.1938" ry="18"/>
<text text-anchor="middle" x="767.691" y="-284.3" font-family="Times New Roman,serif" font-size="14.00">testutils</text>
</g>
<!-- interfacemanager&#45;impl&#45;&gt;testutils -->
<g id="edge10" class="edge"><title>interfacemanager&#45;impl&#45;&gt;testutils</title>
<path fill="none" stroke="black" d="M533.512,-434.958C559.385,-405.572 614.726,-347.407 673.45,-315 688.216,-306.851 705.687,-300.947 721.492,-296.778"/>
<polygon fill="black" stroke="black" points="722.723,-300.079 731.591,-294.283 721.044,-293.284 722.723,-300.079"/>
</g>
<!-- idmanager&#45;impl -->
<g id="node12" class="node"><title>idmanager&#45;impl</title>
<ellipse fill="none" stroke="black" cx="767.691" cy="-234" rx="66.0889" ry="18"/>
<text text-anchor="middle" x="767.691" y="-230.3" font-family="Times New Roman,serif" font-size="14.00">idmanager&#45;impl</text>
</g>
<!-- interfacemanager&#45;impl&#45;&gt;idmanager&#45;impl -->
<g id="edge11" class="edge"><title>interfacemanager&#45;impl&#45;&gt;idmanager&#45;impl</title>
<path fill="none" stroke="black" d="M527.778,-434.843C548.824,-396.686 602.932,-307.846 673.45,-261 682.173,-255.205 692.155,-250.633 702.271,-247.031"/>
<polygon fill="black" stroke="black" points="703.552,-250.294 711.974,-243.866 701.382,-243.639 703.552,-250.294"/>
</g>
<!-- javax.inject -->
<g id="node13" class="node"><title>javax.inject</title>
<ellipse fill="none" stroke="black" cx="767.691" cy="-180" rx="50.8918" ry="18"/>
<text text-anchor="middle" x="767.691" y="-176.3" font-family="Times New Roman,serif" font-size="14.00">javax.inject</text>
</g>
<!-- interfacemanager&#45;impl&#45;&gt;javax.inject -->
<g id="edge14" class="edge"><title>interfacemanager&#45;impl&#45;&gt;javax.inject</title>
<path fill="none" stroke="black" d="M524.388,-435.009C540.937,-389.542 590.712,-269.229 673.45,-207 684.183,-198.928 697.268,-193.265 710.202,-189.293"/>
<polygon fill="black" stroke="black" points="711.318,-192.616 720.021,-186.574 709.45,-185.87 711.318,-192.616"/>
</g>
<!-- alivenessmonitor&#45;api -->
<g id="node14" class="node"><title>alivenessmonitor&#45;api</title>
<ellipse fill="none" stroke="black" cx="767.691" cy="-126" rx="85.2851" ry="18"/>
<text text-anchor="middle" x="767.691" y="-122.3" font-family="Times New Roman,serif" font-size="14.00">alivenessmonitor&#45;api</text>
</g>
<!-- interfacemanager&#45;impl&#45;&gt;alivenessmonitor&#45;api -->
<g id="edge15" class="edge"><title>interfacemanager&#45;impl&#45;&gt;alivenessmonitor&#45;api</title>
<path fill="none" stroke="black" d="M522.228,-434.993C534.786,-382.962 578.28,-231.159 673.45,-153 679.091,-148.367 685.492,-144.529 692.235,-141.35"/>
<polygon fill="black" stroke="black" points="693.741,-144.513 701.602,-137.41 691.027,-138.061 693.741,-144.513"/>
</g>
<!-- model&#45;flow&#45;service -->
<g id="node17" class="node"><title>model&#45;flow&#45;service</title>
<ellipse fill="none" stroke="black" cx="767.691" cy="-72" rx="80.6858" ry="18"/>
<text text-anchor="middle" x="767.691" y="-68.3" font-family="Times New Roman,serif" font-size="14.00">model&#45;flow&#45;service</text>
</g>
<!-- interfacemanager&#45;impl&#45;&gt;model&#45;flow&#45;service -->
<g id="edge17" class="edge"><title>interfacemanager&#45;impl&#45;&gt;model&#45;flow&#45;service</title>
<path fill="none" stroke="black" d="M520.717,-434.778C529.702,-376.575 565.705,-193.441 673.45,-99 679.113,-94.0359 685.641,-89.9821 692.558,-86.6721"/>
<polygon fill="black" stroke="black" points="694.338,-89.7197 702.187,-82.6039 691.614,-83.2715 694.338,-89.7197"/>
</g>
<!-- guava -->
<g id="node19" class="node"><title>guava</title>
<ellipse fill="none" stroke="black" cx="767.691" cy="-18" rx="31.6951" ry="18"/>
<text text-anchor="middle" x="767.691" y="-14.3" font-family="Times New Roman,serif" font-size="14.00">guava</text>
</g>
<!-- interfacemanager&#45;impl&#45;&gt;guava -->
<g id="edge21" class="edge"><title>interfacemanager&#45;impl&#45;&gt;guava</title>
<path fill="none" stroke="black" d="M519.539,-434.798C525.184,-371.119 552.786,-156.186 673.45,-45 687.71,-31.8603 707.986,-25.0777 725.991,-21.5921"/>
<polygon fill="black" stroke="black" points="726.693,-25.0237 735.986,-19.9365 725.549,-18.1178 726.693,-25.0237"/>
</g>
<!-- utils.southbound&#45;utils -->
<g id="node23" class="node"><title>utils.southbound&#45;utils</title>
<ellipse fill="none" stroke="black" cx="767.691" cy="-710" rx="89.0842" ry="18"/>
<text text-anchor="middle" x="767.691" y="-706.3" font-family="Times New Roman,serif" font-size="14.00">utils.southbound&#45;utils</text>
</g>
<!-- interfacemanager&#45;impl&#45;&gt;utils.southbound&#45;utils -->
<g id="edge25" class="edge"><title>interfacemanager&#45;impl&#45;&gt;utils.southbound&#45;utils</title>
<path fill="none" stroke="black" d="M579.698,-466.162C600.865,-473.626 622.883,-485.19 637.45,-503 689.102,-566.151 618.248,-622.927 673.45,-683 677.541,-687.452 682.316,-691.186 687.504,-694.317"/>
<polygon fill="black" stroke="black" points="686.089,-697.526 696.576,-699.035 689.319,-691.316 686.089,-697.526"/>
</g>
<!-- idmanager&#45;api -->
<g id="node24" class="node"><title>idmanager&#45;api</title>
<ellipse fill="none" stroke="black" cx="767.691" cy="-656" rx="61.99" ry="18"/>
<text text-anchor="middle" x="767.691" y="-652.3" font-family="Times New Roman,serif" font-size="14.00">idmanager&#45;api</text>
</g>
<!-- interfacemanager&#45;impl&#45;&gt;idmanager&#45;api -->
<g id="edge29" class="edge"><title>interfacemanager&#45;impl&#45;&gt;idmanager&#45;api</title>
<path fill="none" stroke="black" d="M577.702,-466.376C599.148,-473.906 621.876,-485.458 637.45,-503 676.116,-546.554 632.341,-587.744 673.45,-629 680.932,-636.509 690.366,-641.958 700.341,-645.906"/>
<polygon fill="black" stroke="black" points="699.43,-649.294 710.025,-649.249 701.715,-642.677 699.43,-649.294"/>
</g>
<!-- interfacemanager&#45;api&#45;&gt;ietf&#45;interfaces -->
<g id="edge2" class="edge"><title>interfacemanager&#45;api&#45;&gt;ietf&#45;interfaces</title>
<path fill="none" stroke="black" d="M836.129,-753.057C845.632,-749.195 854.632,-743.996 861.933,-737 898.161,-702.286 860.524,-663.438 897.933,-630 913.308,-616.257 933.977,-608.931 954.082,-605.174"/>
<polygon fill="black" stroke="black" points="954.87,-608.593 964.195,-603.562 953.768,-601.68 954.87,-608.593"/>
</g>
<!-- interfacemanager&#45;api&#45;&gt;openflowplugin&#45;extension&#45;nicira -->
<g id="edge6" class="edge"><title>interfacemanager&#45;api&#45;&gt;openflowplugin&#45;extension&#45;nicira</title>
<path fill="none" stroke="black" d="M837.26,-753.512C846.499,-749.585 855.123,-744.245 861.933,-737 912.151,-683.574 845.895,-627.655 897.933,-576 902.486,-571.481 907.603,-567.637 913.1,-564.375"/>
<polygon fill="black" stroke="black" points="914.78,-567.446 922.022,-559.713 911.538,-561.242 914.78,-567.446"/>
</g>
<!-- interfacemanager&#45;api&#45;&gt;mdsalutil&#45;api -->
<g id="edge20" class="edge"><title>interfacemanager&#45;api&#45;&gt;mdsalutil&#45;api</title>
<path fill="none" stroke="black" d="M838.079,-753.632C847.093,-749.679 855.434,-744.301 861.933,-737 926.357,-664.637 831.042,-592.089 897.933,-522 913.227,-505.975 935.584,-498.337 957.181,-494.984"/>
<polygon fill="black" stroke="black" points="957.872,-498.424 967.354,-493.697 956.994,-491.48 957.872,-498.424"/>
</g>
<!-- interfacemanager&#45;api&#45;&gt;southbound&#45;api -->
<g id="edge12" class="edge"><title>interfacemanager&#45;api&#45;&gt;southbound&#45;api</title>
<path fill="none" stroke="black" d="M838.296,-753.821C847.28,-749.843 855.554,-744.406 861.933,-737 940.648,-645.603 816.1,-556.616 897.933,-468 910.582,-454.303 928.379,-446.684 946.591,-442.631"/>
<polygon fill="black" stroke="black" points="947.245,-446.07 956.423,-440.777 945.947,-439.191 947.245,-446.07"/>
</g>
<!-- ietf&#45;yang&#45;types&#45;20130715 -->
<g id="node9" class="node"><title>ietf&#45;yang&#45;types&#45;20130715</title>
<ellipse fill="none" stroke="black" cx="1024.02" cy="-927" rx="102.882" ry="18"/>
<text text-anchor="middle" x="1024.02" y="-923.3" font-family="Times New Roman,serif" font-size="14.00">ietf&#45;yang&#45;types&#45;20130715</text>
</g>
<!-- interfacemanager&#45;api&#45;&gt;ietf&#45;yang&#45;types&#45;20130715 -->
<g id="edge8" class="edge"><title>interfacemanager&#45;api&#45;&gt;ietf&#45;yang&#45;types&#45;20130715</title>
<path fill="none" stroke="black" d="M780.223,-781.814C800.344,-811.354 844.826,-870.173 897.933,-900 908.073,-905.695 919.295,-910.189 930.734,-913.737"/>
<polygon fill="black" stroke="black" points="929.798,-917.109 940.375,-916.499 931.726,-910.38 929.798,-917.109"/>
</g>
<!-- model&#45;inventory -->
<g id="node18" class="node"><title>model&#45;inventory</title>
<ellipse fill="none" stroke="black" cx="1024.02" cy="-873" rx="69.5877" ry="18"/>
<text text-anchor="middle" x="1024.02" y="-869.3" font-family="Times New Roman,serif" font-size="14.00">model&#45;inventory</text>
</g>
<!-- interfacemanager&#45;api&#45;&gt;model&#45;inventory -->
<g id="edge19" class="edge"><title>interfacemanager&#45;api&#45;&gt;model&#45;inventory</title>
<path fill="none" stroke="black" d="M790.695,-781.414C815.401,-800.114 857.363,-829.372 897.933,-846 915.105,-853.038 934.388,-858.358 952.577,-862.331"/>
<polygon fill="black" stroke="black" points="952.047,-865.796 962.549,-864.403 953.47,-858.942 952.047,-865.796"/>
</g>
<!-- yang&#45;binding -->
<g id="node20" class="node"><title>yang&#45;binding</title>
<ellipse fill="none" stroke="black" cx="1024.02" cy="-819" rx="57.6901" ry="18"/>
<text text-anchor="middle" x="1024.02" y="-815.3" font-family="Times New Roman,serif" font-size="14.00">yang&#45;binding</text>
</g>
<!-- interfacemanager&#45;api&#45;&gt;yang&#45;binding -->
<g id="edge22" class="edge"><title>interfacemanager&#45;api&#45;&gt;yang&#45;binding</title>
<path fill="none" stroke="black" d="M827.882,-776.834C849.878,-781.6 875.045,-787.05 897.933,-792 920.241,-796.824 944.789,-802.124 966.186,-806.742"/>
<polygon fill="black" stroke="black" points="965.58,-810.192 976.094,-808.88 967.057,-803.349 965.58,-810.192"/>
</g>
<!-- yang&#45;ext -->
<g id="node22" class="node"><title>yang&#45;ext</title>
<ellipse fill="none" stroke="black" cx="1024.02" cy="-765" rx="41.6928" ry="18"/>
<text text-anchor="middle" x="1024.02" y="-761.3" font-family="Times New Roman,serif" font-size="14.00">yang&#45;ext</text>
</g>
<!-- interfacemanager&#45;api&#45;&gt;yang&#45;ext -->
<g id="edge24" class="edge"><title>interfacemanager&#45;api&#45;&gt;yang&#45;ext</title>
<path fill="none" stroke="black" d="M853.027,-764.332C892.47,-764.487 938.137,-764.666 972.201,-764.8"/>
<polygon fill="black" stroke="black" points="972.366,-768.301 982.38,-764.84 972.394,-761.301 972.366,-768.301"/>
</g>
<!-- iana&#45;if&#45;type&#45;2014&#45;05&#45;08 -->
<g id="node25" class="node"><title>iana&#45;if&#45;type&#45;2014&#45;05&#45;08</title>
<ellipse fill="none" stroke="black" cx="1024.02" cy="-711" rx="94.7833" ry="18"/>
<text text-anchor="middle" x="1024.02" y="-707.3" font-family="Times New Roman,serif" font-size="14.00">iana&#45;if&#45;type&#45;2014&#45;05&#45;08</text>
</g>
<!-- interfacemanager&#45;api&#45;&gt;iana&#45;if&#45;type&#45;2014&#45;05&#45;08 -->
<g id="edge31" class="edge"><title>interfacemanager&#45;api&#45;&gt;iana&#45;if&#45;type&#45;2014&#45;05&#45;08</title>
<path fill="none" stroke="black" d="M828.964,-751.44C864.967,-743.937 910.971,-734.35 949.15,-726.394"/>
<polygon fill="black" stroke="black" points="950.109,-729.77 959.185,-724.303 948.681,-722.917 950.109,-729.77"/>
</g>
<!-- ietf&#45;inet&#45;types&#45;2013&#45;07&#45;15 -->
<g id="node26" class="node"><title>ietf&#45;inet&#45;types&#45;2013&#45;07&#45;15</title>
<ellipse fill="none" stroke="black" cx="1024.02" cy="-657" rx="103.982" ry="18"/>
<text text-anchor="middle" x="1024.02" y="-653.3" font-family="Times New Roman,serif" font-size="14.00">ietf&#45;inet&#45;types&#45;2013&#45;07&#45;15</text>
</g>
<!-- interfacemanager&#45;api&#45;&gt;ietf&#45;inet&#45;types&#45;2013&#45;07&#45;15 -->
<g id="edge32" class="edge"><title>interfacemanager&#45;api&#45;&gt;ietf&#45;inet&#45;types&#45;2013&#45;07&#45;15</title>
<path fill="none" stroke="black" d="M832.149,-752.086C842.695,-748.344 853.069,-743.436 861.933,-737 884.976,-720.27 874.325,-699.922 897.933,-684 906.587,-678.163 916.278,-673.56 926.334,-669.933"/>
<polygon fill="black" stroke="black" points="927.651,-673.185 936.065,-666.747 925.473,-666.532 927.651,-673.185"/>
</g>
<!-- interfacemanager -->
<g id="node15" class="node"><title>interfacemanager</title>
<ellipse fill="none" stroke="black" cx="71.4937" cy="-530" rx="71.4873" ry="18"/>
<text text-anchor="middle" x="71.4937" y="-526.3" font-family="Times New Roman,serif" font-size="14.00">interfacemanager</text>
</g>
<!-- interfacemanager&#45;&gt;interfacemanager&#45;impl -->
<g id="edge27" class="edge"><title>interfacemanager&#45;&gt;interfacemanager&#45;impl</title>
<path fill="none" stroke="black" d="M120.235,-516.8C138.519,-512.034 159.631,-506.878 178.987,-503 263.303,-486.106 360.535,-472.283 428.863,-463.486"/>
<polygon fill="black" stroke="black" points="429.676,-466.911 439.152,-462.172 428.789,-459.967 429.676,-466.911"/>
</g>
<!-- interfacemanager&#45;&gt;interfacemanager&#45;api -->
<g id="edge26" class="edge"><title>interfacemanager&#45;&gt;interfacemanager&#45;api</title>
<path fill="none" stroke="black" d="M103.472,-546.332C160.291,-575.74 285.577,-638.063 396.971,-676 497.093,-710.098 616.795,-735.998 692.297,-750.597"/>
<polygon fill="black" stroke="black" points="691.713,-754.049 702.194,-752.495 693.032,-747.174 691.713,-754.049"/>
</g>
<!-- interfacemanager&#45;shell -->
<g id="node16" class="node"><title>interfacemanager&#45;shell</title>
<ellipse fill="none" stroke="black" cx="269.979" cy="-530" rx="90.9839" ry="18"/>
<text text-anchor="middle" x="269.979" y="-526.3" font-family="Times New Roman,serif" font-size="14.00">interfacemanager&#45;shell</text>
</g>
<!-- interfacemanager&#45;&gt;interfacemanager&#45;shell -->
<g id="edge16" class="edge"><title>interfacemanager&#45;&gt;interfacemanager&#45;shell</title>
<path fill="none" stroke="black" d="M143.152,-530C151.455,-530 160.044,-530 168.655,-530"/>
<polygon fill="black" stroke="black" points="168.757,-533.5 178.757,-530 168.757,-526.5 168.757,-533.5"/>
</g>
<!-- interfacemanager&#45;shell&#45;&gt;interfacemanager&#45;impl -->
<g id="edge30" class="edge"><title>interfacemanager&#45;shell&#45;&gt;interfacemanager&#45;impl</title>
<path fill="none" stroke="black" d="M319.429,-514.787C359.315,-502.264 415.971,-484.474 458.256,-471.197"/>
<polygon fill="black" stroke="black" points="459.369,-474.516 467.861,-468.181 457.272,-467.838 459.369,-474.516"/>
</g>
<!-- interfacemanager&#45;shell&#45;&gt;interfacemanager&#45;api -->
<g id="edge18" class="edge"><title>interfacemanager&#45;shell&#45;&gt;interfacemanager&#45;api</title>
<path fill="none" stroke="black" d="M299.367,-547.047C363.914,-585.255 527.423,-678.937 673.45,-737 682.729,-740.689 692.707,-744.117 702.564,-747.207"/>
<polygon fill="black" stroke="black" points="701.765,-750.622 712.35,-750.181 703.8,-743.925 701.765,-750.622"/>
</g>
<!-- org.apache.karaf.shell.console -->
<g id="node21" class="node"><title>org.apache.karaf.shell.console</title>
<ellipse fill="none" stroke="black" cx="517.21" cy="-530" rx="120.479" ry="18"/>
<text text-anchor="middle" x="517.21" y="-526.3" font-family="Times New Roman,serif" font-size="14.00">org.apache.karaf.shell.console</text>
</g>
<!-- interfacemanager&#45;shell&#45;&gt;org.apache.karaf.shell.console -->
<g id="edge23" class="edge"><title>interfacemanager&#45;shell&#45;&gt;org.apache.karaf.shell.console</title>
<path fill="none" stroke="black" d="M361.25,-530C369.593,-530 378.152,-530 386.756,-530"/>
<polygon fill="black" stroke="black" points="386.866,-533.5 396.866,-530 386.866,-526.5 386.866,-533.5"/>
</g>
</g>
</svg>
