<?xml version="1.0" encoding="UTF-8" standalone="no"?>
<!DOCTYPE svg PUBLIC "-//W3C//DTD SVG 1.1//EN"
 "http://www.w3.org/Graphics/SVG/1.1/DTD/svg11.dtd">
<!-- Generated by graphviz version 2.38.0 (20140413.2041)
 -->
<!-- Title: structs Pages: 1 -->
<svg width="682pt" height="928pt"
 viewBox="0.00 0.00 682.15 927.65" xmlns="http://www.w3.org/2000/svg" xmlns:xlink="http://www.w3.org/1999/xlink">
<g id="graph0" class="graph" transform="scale(1 1) rotate(0) translate(4 923.654)">
<title>structs</title>
<polygon fill="white" stroke="none" points="-4,4 -4,-923.654 678.155,-923.654 678.155,4 -4,4"/>
<!-- itm&#45;impl -->
<g id="node1" class="node"><title>itm&#45;impl</title>
<ellipse fill="none" stroke="black" cx="130.296" cy="-496" rx="40.0939" ry="18"/>
<text text-anchor="middle" x="130.296" y="-492.3" font-family="Times New Roman,serif" font-size="14.00">itm&#45;impl</text>
</g>
<!-- lockmanager&#45;impl -->
<g id="node2" class="node"><title>lockmanager&#45;impl</title>
<ellipse fill="none" stroke="black" cx="302.134" cy="-688" rx="75.2868" ry="18"/>
<text text-anchor="middle" x="302.134" y="-684.3" font-family="Times New Roman,serif" font-size="14.00">lockmanager&#45;impl</text>
</g>
<!-- itm&#45;impl&#45;&gt;lockmanager&#45;impl -->
<g id="edge1" class="edge"><title>itm&#45;impl&#45;&gt;lockmanager&#45;impl</title>
<path fill="none" stroke="black" d="M134.415,-514.123C141.222,-548.093 160.643,-621.47 206.593,-661 213.103,-666.601 220.707,-671.043 228.721,-674.566"/>
<polygon fill="black" stroke="black" points="227.69,-677.92 238.278,-678.293 230.234,-671.399 227.69,-677.92"/>
</g>
<!-- testutils -->
<g id="node3" class="node"><title>testutils</title>
<ellipse fill="none" stroke="black" cx="302.134" cy="-634" rx="38.1938" ry="18"/>
<text text-anchor="middle" x="302.134" y="-630.3" font-family="Times New Roman,serif" font-size="14.00">testutils</text>
</g>
<!-- itm&#45;impl&#45;&gt;testutils -->
<g id="edge2" class="edge"><title>itm&#45;impl&#45;&gt;testutils</title>
<path fill="none" stroke="black" d="M139.423,-513.636C151.084,-537.074 174.721,-578.282 206.593,-602 220.983,-612.709 239.193,-619.989 255.782,-624.863"/>
<polygon fill="black" stroke="black" points="255.285,-628.355 265.853,-627.596 257.118,-621.599 255.285,-628.355"/>
</g>
<!-- itm&#45;api -->
<g id="node4" class="node"><title>itm&#45;api</title>
<ellipse fill="none" stroke="black" cx="302.134" cy="-850" rx="35.9954" ry="18"/>
<text text-anchor="middle" x="302.134" y="-846.3" font-family="Times New Roman,serif" font-size="14.00">itm&#45;api</text>
</g>
<!-- itm&#45;impl&#45;&gt;itm&#45;api -->
<g id="edge5" class="edge"><title>itm&#45;impl&#45;&gt;itm&#45;api</title>
<path fill="none" stroke="black" d="M135.216,-514.155C149.902,-582.021 201.103,-817.217 206.593,-823 219.365,-836.452 238.33,-843.349 255.929,-846.832"/>
<polygon fill="black" stroke="black" points="255.638,-850.331 266.075,-848.512 256.781,-843.425 255.638,-850.331"/>
</g>
<!-- org.apache.karaf.shell.console -->
<g id="node5" class="node"><title>org.apache.karaf.shell.console</title>
<ellipse fill="none" stroke="black" cx="553.915" cy="-873" rx="120.479" ry="18"/>
<text text-anchor="middle" x="553.915" y="-869.3" font-family="Times New Roman,serif" font-size="14.00">org.apache.karaf.shell.console</text>
</g>
<!-- itm&#45;impl&#45;&gt;org.apache.karaf.shell.console -->
<g id="edge21" class="edge"><title>itm&#45;impl&#45;&gt;org.apache.karaf.shell.console</title>
<path fill="none" stroke="black" d="M131.965,-514.162C134.934,-583.503 149.42,-830.02 206.593,-877 289.179,-944.862 424.066,-916.547 498.794,-892.904"/>
<polygon fill="black" stroke="black" points="500.055,-896.175 508.485,-889.757 497.893,-889.517 500.055,-896.175"/>
</g>
<!-- javax.inject -->
<g id="node6" class="node"><title>javax.inject</title>
<ellipse fill="none" stroke="black" cx="302.134" cy="-450" rx="50.8918" ry="18"/>
<text text-anchor="middle" x="302.134" y="-446.3" font-family="Times New Roman,serif" font-size="14.00">javax.inject</text>
</g>
<!-- itm&#45;impl&#45;&gt;javax.inject -->
<g id="edge4" class="edge"><title>itm&#45;impl&#45;&gt;javax.inject</title>
<path fill="none" stroke="black" d="M165.257,-486.802C189.915,-480.123 223.668,-470.981 251.365,-463.48"/>
<polygon fill="black" stroke="black" points="252.529,-466.791 261.266,-460.798 250.699,-460.034 252.529,-466.791"/>
</g>
<!-- commons&#45;net -->
<g id="node7" class="node"><title>commons&#45;net</title>
<ellipse fill="none" stroke="black" cx="302.134" cy="-396" rx="60.3893" ry="18"/>
<text text-anchor="middle" x="302.134" y="-392.3" font-family="Times New Roman,serif" font-size="14.00">commons&#45;net</text>
</g>
<!-- itm&#45;impl&#45;&gt;commons&#45;net -->
<g id="edge6" class="edge"><title>itm&#45;impl&#45;&gt;commons&#45;net</title>
<path fill="none" stroke="black" d="M144.48,-479.052C158.264,-462.449 181.371,-437.577 206.593,-423 217.1,-416.928 229.062,-412.146 240.861,-408.406"/>
<polygon fill="black" stroke="black" points="242.098,-411.69 250.699,-405.504 240.117,-404.976 242.098,-411.69"/>
</g>
<!-- mdsalutil&#45;api -->
<g id="node9" class="node"><title>mdsalutil&#45;api</title>
<ellipse fill="none" stroke="black" cx="302.134" cy="-342" rx="56.59" ry="18"/>
<text text-anchor="middle" x="302.134" y="-338.3" font-family="Times New Roman,serif" font-size="14.00">mdsalutil&#45;api</text>
</g>
<!-- itm&#45;impl&#45;&gt;mdsalutil&#45;api -->
<g id="edge9" class="edge"><title>itm&#45;impl&#45;&gt;mdsalutil&#45;api</title>
<path fill="none" stroke="black" d="M137.111,-477.897C146.932,-450.234 169.447,-397.645 206.593,-369 216.308,-361.508 228.021,-356.094 239.843,-352.183"/>
<polygon fill="black" stroke="black" points="241.169,-355.44 249.758,-349.238 239.175,-348.73 241.169,-355.44"/>
</g>
<!-- guava -->
<g id="node10" class="node"><title>guava</title>
<ellipse fill="none" stroke="black" cx="302.134" cy="-288" rx="31.6951" ry="18"/>
<text text-anchor="middle" x="302.134" y="-284.3" font-family="Times New Roman,serif" font-size="14.00">guava</text>
</g>
<!-- itm&#45;impl&#45;&gt;guava -->
<g id="edge10" class="edge"><title>itm&#45;impl&#45;&gt;guava</title>
<path fill="none" stroke="black" d="M133.598,-477.864C139.19,-441.469 156.895,-359.241 206.593,-315 221.262,-301.941 241.843,-295.167 260.059,-291.666"/>
<polygon fill="black" stroke="black" points="260.867,-295.08 270.164,-289.999 259.728,-288.173 260.867,-295.08"/>
</g>
<!-- mdsal&#45;binding&#45;test&#45;utils -->
<g id="node11" class="node"><title>mdsal&#45;binding&#45;test&#45;utils</title>
<ellipse fill="none" stroke="black" cx="302.134" cy="-234" rx="94.7833" ry="18"/>
<text text-anchor="middle" x="302.134" y="-230.3" font-family="Times New Roman,serif" font-size="14.00">mdsal&#45;binding&#45;test&#45;utils</text>
</g>
<!-- itm&#45;impl&#45;&gt;mdsal&#45;binding&#45;test&#45;utils -->
<g id="edge11" class="edge"><title>itm&#45;impl&#45;&gt;mdsal&#45;binding&#45;test&#45;utils</title>
<path fill="none" stroke="black" d="M131.61,-477.733C133.38,-433.822 144.124,-321.508 206.593,-261 210.834,-256.892 215.656,-253.401 220.823,-250.435"/>
<polygon fill="black" stroke="black" points="222.44,-253.54 229.805,-245.924 219.298,-247.285 222.44,-253.54"/>
</g>
<!-- idmanager&#45;api -->
<g id="node12" class="node"><title>idmanager&#45;api</title>
<ellipse fill="none" stroke="black" cx="302.134" cy="-180" rx="61.99" ry="18"/>
<text text-anchor="middle" x="302.134" y="-176.3" font-family="Times New Roman,serif" font-size="14.00">idmanager&#45;api</text>
</g>
<!-- itm&#45;impl&#45;&gt;idmanager&#45;api -->
<g id="edge12" class="edge"><title>itm&#45;impl&#45;&gt;idmanager&#45;api</title>
<path fill="none" stroke="black" d="M133.635,-478.023C141.379,-421.153 167.914,-246.591 206.593,-207 214.264,-199.147 224.048,-193.536 234.399,-189.536"/>
<polygon fill="black" stroke="black" points="235.659,-192.805 244.019,-186.297 233.425,-186.171 235.659,-192.805"/>
</g>
<!-- ietf&#45;interfaces -->
<g id="node13" class="node"><title>ietf&#45;interfaces</title>
<ellipse fill="none" stroke="black" cx="553.915" cy="-703" rx="59.5901" ry="18"/>
<text text-anchor="middle" x="553.915" y="-699.3" font-family="Times New Roman,serif" font-size="14.00">ietf&#45;interfaces</text>
</g>
<!-- itm&#45;impl&#45;&gt;ietf&#45;interfaces -->
<g id="edge17" class="edge"><title>itm&#45;impl&#45;&gt;ietf&#45;interfaces</title>
<path fill="none" stroke="black" d="M143.983,-513.072C157.545,-530.02 180.634,-555.383 206.593,-569 283.272,-609.224 324.849,-560.162 397.676,-607 420.707,-621.812 412.001,-640.266 433.676,-657 452.181,-671.287 475.652,-681.606 496.866,-688.803"/>
<polygon fill="black" stroke="black" points="495.837,-692.148 506.429,-691.893 497.99,-685.487 495.837,-692.148"/>
</g>
<!-- idmanager&#45;impl -->
<g id="node14" class="node"><title>idmanager&#45;impl</title>
<ellipse fill="none" stroke="black" cx="302.134" cy="-126" rx="66.0889" ry="18"/>
<text text-anchor="middle" x="302.134" y="-122.3" font-family="Times New Roman,serif" font-size="14.00">idmanager&#45;impl</text>
</g>
<!-- itm&#45;impl&#45;&gt;idmanager&#45;impl -->
<g id="edge14" class="edge"><title>itm&#45;impl&#45;&gt;idmanager&#45;impl</title>
<path fill="none" stroke="black" d="M132.853,-477.9C138.688,-414.14 161.293,-201.204 206.593,-153 213.431,-145.723 222.081,-140.362 231.358,-136.421"/>
<polygon fill="black" stroke="black" points="232.63,-139.683 240.799,-132.936 230.206,-133.116 232.63,-139.683"/>
</g>
<!-- interfacemanager&#45;api -->
<g id="node15" class="node"><title>interfacemanager&#45;api</title>
<ellipse fill="none" stroke="black" cx="553.915" cy="-630" rx="85.2851" ry="18"/>
<text text-anchor="middle" x="553.915" y="-626.3" font-family="Times New Roman,serif" font-size="14.00">interfacemanager&#45;api</text>
</g>
<!-- itm&#45;impl&#45;&gt;interfacemanager&#45;api -->
<g id="edge15" class="edge"><title>itm&#45;impl&#45;&gt;interfacemanager&#45;api</title>
<path fill="none" stroke="black" d="M169.754,-492.175C222.834,-488.341 320.711,-486.522 397.676,-515 450.007,-534.363 499.881,-577.124 528.392,-604.696"/>
<polygon fill="black" stroke="black" points="526.269,-607.518 535.851,-612.038 531.179,-602.529 526.269,-607.518"/>
</g>
<!-- sal&#45;binding&#45;broker&#45;impl -->
<g id="node16" class="node"><title>sal&#45;binding&#45;broker&#45;impl</title>
<ellipse fill="none" stroke="black" cx="302.134" cy="-72" rx="95.5831" ry="18"/>
<text text-anchor="middle" x="302.134" y="-68.3" font-family="Times New Roman,serif" font-size="14.00">sal&#45;binding&#45;broker&#45;impl</text>
</g>
<!-- itm&#45;impl&#45;&gt;sal&#45;binding&#45;broker&#45;impl -->
<g id="edge16" class="edge"><title>itm&#45;impl&#45;&gt;sal&#45;binding&#45;broker&#45;impl</title>
<path fill="none" stroke="black" d="M132.286,-477.557C136.433,-407.076 154.677,-155.855 206.593,-99 210.334,-94.9033 214.648,-91.4117 219.331,-88.4374"/>
<polygon fill="black" stroke="black" points="221.026,-91.4997 228.113,-83.6237 217.661,-85.3614 221.026,-91.4997"/>
</g>
<!-- truth -->
<g id="node17" class="node"><title>truth</title>
<ellipse fill="none" stroke="black" cx="302.134" cy="-18" rx="27.0966" ry="18"/>
<text text-anchor="middle" x="302.134" y="-14.3" font-family="Times New Roman,serif" font-size="14.00">truth</text>
</g>
<!-- itm&#45;impl&#45;&gt;truth -->
<g id="edge18" class="edge"><title>itm&#45;impl&#45;&gt;truth</title>
<path fill="none" stroke="black" d="M131.813,-477.981C134.347,-402.27 147.83,-110.792 206.593,-45 221.117,-28.7381 244.685,-21.9823 264.655,-19.2949"/>
<polygon fill="black" stroke="black" points="265.127,-22.7646 274.703,-18.2316 264.391,-15.8035 265.127,-22.7646"/>
</g>
<!-- junit -->
<g id="node18" class="node"><title>junit</title>
<ellipse fill="none" stroke="black" cx="302.134" cy="-796" rx="27" ry="18"/>
<text text-anchor="middle" x="302.134" y="-792.3" font-family="Times New Roman,serif" font-size="14.00">junit</text>
</g>
<!-- itm&#45;impl&#45;&gt;junit -->
<g id="edge19" class="edge"><title>itm&#45;impl&#45;&gt;junit</title>
<path fill="none" stroke="black" d="M135.216,-514.125C147.901,-572.099 188.078,-750.316 206.593,-769 221.768,-784.314 244.982,-791.089 264.608,-794.023"/>
<polygon fill="black" stroke="black" points="264.425,-797.527 274.775,-795.261 265.271,-790.578 264.425,-797.527"/>
</g>
<!-- org.osgi.core -->
<g id="node19" class="node"><title>org.osgi.core</title>
<ellipse fill="none" stroke="black" cx="302.134" cy="-742" rx="59.2899" ry="18"/>
<text text-anchor="middle" x="302.134" y="-738.3" font-family="Times New Roman,serif" font-size="14.00">org.osgi.core</text>
</g>
<!-- itm&#45;impl&#45;&gt;org.osgi.core -->
<g id="edge20" class="edge"><title>itm&#45;impl&#45;&gt;org.osgi.core</title>
<path fill="none" stroke="black" d="M132.11,-514.282C134.979,-556.098 147.956,-659.39 206.593,-715 215.023,-722.995 225.653,-728.647 236.718,-732.637"/>
<polygon fill="black" stroke="black" points="235.919,-736.055 246.508,-735.733 238.029,-729.381 235.919,-736.055"/>
</g>
<!-- mockito&#45;core -->
<g id="node20" class="node"><title>mockito&#45;core</title>
<ellipse fill="none" stroke="black" cx="302.134" cy="-542" rx="59.5901" ry="18"/>
<text text-anchor="middle" x="302.134" y="-538.3" font-family="Times New Roman,serif" font-size="14.00">mockito&#45;core</text>
</g>
<!-- itm&#45;impl&#45;&gt;mockito&#45;core -->
<g id="edge22" class="edge"><title>itm&#45;impl&#45;&gt;mockito&#45;core</title>
<path fill="none" stroke="black" d="M165.257,-505.198C188.794,-511.573 220.619,-520.193 247.552,-527.487"/>
<polygon fill="black" stroke="black" points="246.661,-530.872 257.229,-530.108 248.491,-524.116 246.661,-530.872"/>
</g>
<!-- itm&#45;api&#45;&gt;org.apache.karaf.shell.console -->
<g id="edge3" class="edge"><title>itm&#45;api&#45;&gt;org.apache.karaf.shell.console</title>
<path fill="none" stroke="black" d="M337.342,-853.15C364.325,-855.634 403.561,-859.247 441.186,-862.712"/>
<polygon fill="black" stroke="black" points="440.945,-866.204 451.224,-863.636 441.587,-859.234 440.945,-866.204"/>
</g>
<!-- itm&#45;api&#45;&gt;ietf&#45;interfaces -->
<g id="edge13" class="edge"><title>itm&#45;api&#45;&gt;ietf&#45;interfaces</title>
<path fill="none" stroke="black" d="M335.781,-843.894C354.542,-839.609 378.177,-832.859 397.676,-823 448.249,-797.43 498.65,-754.418 527.745,-727.431"/>
<polygon fill="black" stroke="black" points="530.475,-729.668 535.369,-720.272 525.684,-724.565 530.475,-729.668"/>
</g>
<!-- itm&#45;api&#45;&gt;interfacemanager&#45;api -->
<g id="edge23" class="edge"><title>itm&#45;api&#45;&gt;interfacemanager&#45;api</title>
<path fill="none" stroke="black" d="M338.113,-848.434C358.147,-845.699 382.286,-838.986 397.676,-823 444.326,-774.542 389.253,-726.508 433.676,-676 445.978,-662.013 463.035,-652.252 480.406,-645.451"/>
<polygon fill="black" stroke="black" points="481.841,-648.654 490.06,-641.968 479.465,-642.069 481.841,-648.654"/>
</g>
<!-- itm -->
<g id="node8" class="node"><title>itm</title>
<ellipse fill="none" stroke="black" cx="27" cy="-519" rx="27" ry="18"/>
<text text-anchor="middle" x="27" y="-515.3" font-family="Times New Roman,serif" font-size="14.00">itm</text>
</g>
<!-- itm&#45;&gt;itm&#45;impl -->
<g id="edge8" class="edge"><title>itm&#45;&gt;itm&#45;impl</title>
<path fill="none" stroke="black" d="M52.7799,-513.374C62.2868,-511.215 73.4559,-508.679 84.2778,-506.222"/>
<polygon fill="black" stroke="black" points="85.0843,-509.628 94.0611,-504 83.5343,-502.802 85.0843,-509.628"/>
</g>
<!-- itm&#45;&gt;itm&#45;api -->
<g id="edge7" class="edge"><title>itm&#45;&gt;itm&#45;api</title>
<path fill="none" stroke="black" d="M33.1489,-536.547C49.3671,-588.681 104.474,-743.923 206.593,-823 221.034,-834.183 239.919,-840.734 257.011,-844.572"/>
<polygon fill="black" stroke="black" points="256.328,-848.005 266.82,-846.533 257.7,-841.141 256.328,-848.005"/>
</g>
</g>
</svg>
